%TF.GenerationSoftware,KiCad,Pcbnew,9.0.6*%
%TF.CreationDate,2026-03-23T22:10:56-05:00*%
%TF.ProjectId,controller,636f6e74-726f-46c6-9c65-722e6b696361,rev?*%
%TF.SameCoordinates,PXf42400PY56c8cc0*%
%TF.FileFunction,Legend,Top*%
%TF.FilePolarity,Positive*%
%FSLAX46Y46*%
G04 Gerber Fmt 4.6, Leading zero omitted, Abs format (unit mm)*
G04 Created by KiCad (PCBNEW 9.0.6) date 2026-03-23 22:10:56*
%MOMM*%
%LPD*%
G01*
G04 APERTURE LIST*
%ADD10C,0.150000*%
%ADD11C,0.120000*%
%ADD12C,0.100000*%
G04 APERTURE END LIST*
D10*
X22138628Y39043810D02*
X22614819Y39043810D01*
X21614819Y38710477D02*
X22138628Y39043810D01*
X22138628Y39043810D02*
X21614819Y39377143D01*
X22614819Y40234286D02*
X22614819Y39662858D01*
X22614819Y39948572D02*
X21614819Y39948572D01*
X21614819Y39948572D02*
X21757676Y39853334D01*
X21757676Y39853334D02*
X21852914Y39758096D01*
X21852914Y39758096D02*
X21900533Y39662858D01*
X104684819Y7592382D02*
X103684819Y7592382D01*
X103684819Y7592382D02*
X103684819Y7973334D01*
X103684819Y7973334D02*
X103732438Y8068572D01*
X103732438Y8068572D02*
X103780057Y8116191D01*
X103780057Y8116191D02*
X103875295Y8163810D01*
X103875295Y8163810D02*
X104018152Y8163810D01*
X104018152Y8163810D02*
X104113390Y8116191D01*
X104113390Y8116191D02*
X104161009Y8068572D01*
X104161009Y8068572D02*
X104208628Y7973334D01*
X104208628Y7973334D02*
X104208628Y7592382D01*
X103684819Y8782858D02*
X103684819Y8973334D01*
X103684819Y8973334D02*
X103732438Y9068572D01*
X103732438Y9068572D02*
X103827676Y9163810D01*
X103827676Y9163810D02*
X104018152Y9211429D01*
X104018152Y9211429D02*
X104351485Y9211429D01*
X104351485Y9211429D02*
X104541961Y9163810D01*
X104541961Y9163810D02*
X104637200Y9068572D01*
X104637200Y9068572D02*
X104684819Y8973334D01*
X104684819Y8973334D02*
X104684819Y8782858D01*
X104684819Y8782858D02*
X104637200Y8687620D01*
X104637200Y8687620D02*
X104541961Y8592382D01*
X104541961Y8592382D02*
X104351485Y8544763D01*
X104351485Y8544763D02*
X104018152Y8544763D01*
X104018152Y8544763D02*
X103827676Y8592382D01*
X103827676Y8592382D02*
X103732438Y8687620D01*
X103732438Y8687620D02*
X103684819Y8782858D01*
X103684819Y9544763D02*
X104684819Y9782858D01*
X104684819Y9782858D02*
X103970533Y9973334D01*
X103970533Y9973334D02*
X104684819Y10163810D01*
X104684819Y10163810D02*
X103684819Y10401905D01*
X104161009Y10782858D02*
X104161009Y11116191D01*
X104684819Y11259048D02*
X104684819Y10782858D01*
X104684819Y10782858D02*
X103684819Y10782858D01*
X103684819Y10782858D02*
X103684819Y11259048D01*
X104684819Y12259048D02*
X104208628Y11925715D01*
X104684819Y11687620D02*
X103684819Y11687620D01*
X103684819Y11687620D02*
X103684819Y12068572D01*
X103684819Y12068572D02*
X103732438Y12163810D01*
X103732438Y12163810D02*
X103780057Y12211429D01*
X103780057Y12211429D02*
X103875295Y12259048D01*
X103875295Y12259048D02*
X104018152Y12259048D01*
X104018152Y12259048D02*
X104113390Y12211429D01*
X104113390Y12211429D02*
X104161009Y12163810D01*
X104161009Y12163810D02*
X104208628Y12068572D01*
X104208628Y12068572D02*
X104208628Y11687620D01*
X104589580Y14020953D02*
X104637200Y13973334D01*
X104637200Y13973334D02*
X104684819Y13830477D01*
X104684819Y13830477D02*
X104684819Y13735239D01*
X104684819Y13735239D02*
X104637200Y13592382D01*
X104637200Y13592382D02*
X104541961Y13497144D01*
X104541961Y13497144D02*
X104446723Y13449525D01*
X104446723Y13449525D02*
X104256247Y13401906D01*
X104256247Y13401906D02*
X104113390Y13401906D01*
X104113390Y13401906D02*
X103922914Y13449525D01*
X103922914Y13449525D02*
X103827676Y13497144D01*
X103827676Y13497144D02*
X103732438Y13592382D01*
X103732438Y13592382D02*
X103684819Y13735239D01*
X103684819Y13735239D02*
X103684819Y13830477D01*
X103684819Y13830477D02*
X103732438Y13973334D01*
X103732438Y13973334D02*
X103780057Y14020953D01*
X103684819Y14640001D02*
X103684819Y14830477D01*
X103684819Y14830477D02*
X103732438Y14925715D01*
X103732438Y14925715D02*
X103827676Y15020953D01*
X103827676Y15020953D02*
X104018152Y15068572D01*
X104018152Y15068572D02*
X104351485Y15068572D01*
X104351485Y15068572D02*
X104541961Y15020953D01*
X104541961Y15020953D02*
X104637200Y14925715D01*
X104637200Y14925715D02*
X104684819Y14830477D01*
X104684819Y14830477D02*
X104684819Y14640001D01*
X104684819Y14640001D02*
X104637200Y14544763D01*
X104637200Y14544763D02*
X104541961Y14449525D01*
X104541961Y14449525D02*
X104351485Y14401906D01*
X104351485Y14401906D02*
X104018152Y14401906D01*
X104018152Y14401906D02*
X103827676Y14449525D01*
X103827676Y14449525D02*
X103732438Y14544763D01*
X103732438Y14544763D02*
X103684819Y14640001D01*
X104684819Y15497144D02*
X103684819Y15497144D01*
X103684819Y15497144D02*
X104684819Y16068572D01*
X104684819Y16068572D02*
X103684819Y16068572D01*
X103684819Y16401906D02*
X103684819Y16973334D01*
X104684819Y16687620D02*
X103684819Y16687620D01*
X104684819Y17878096D02*
X104208628Y17544763D01*
X104684819Y17306668D02*
X103684819Y17306668D01*
X103684819Y17306668D02*
X103684819Y17687620D01*
X103684819Y17687620D02*
X103732438Y17782858D01*
X103732438Y17782858D02*
X103780057Y17830477D01*
X103780057Y17830477D02*
X103875295Y17878096D01*
X103875295Y17878096D02*
X104018152Y17878096D01*
X104018152Y17878096D02*
X104113390Y17830477D01*
X104113390Y17830477D02*
X104161009Y17782858D01*
X104161009Y17782858D02*
X104208628Y17687620D01*
X104208628Y17687620D02*
X104208628Y17306668D01*
X103684819Y18497144D02*
X103684819Y18687620D01*
X103684819Y18687620D02*
X103732438Y18782858D01*
X103732438Y18782858D02*
X103827676Y18878096D01*
X103827676Y18878096D02*
X104018152Y18925715D01*
X104018152Y18925715D02*
X104351485Y18925715D01*
X104351485Y18925715D02*
X104541961Y18878096D01*
X104541961Y18878096D02*
X104637200Y18782858D01*
X104637200Y18782858D02*
X104684819Y18687620D01*
X104684819Y18687620D02*
X104684819Y18497144D01*
X104684819Y18497144D02*
X104637200Y18401906D01*
X104637200Y18401906D02*
X104541961Y18306668D01*
X104541961Y18306668D02*
X104351485Y18259049D01*
X104351485Y18259049D02*
X104018152Y18259049D01*
X104018152Y18259049D02*
X103827676Y18306668D01*
X103827676Y18306668D02*
X103732438Y18401906D01*
X103732438Y18401906D02*
X103684819Y18497144D01*
X104684819Y19830477D02*
X104684819Y19354287D01*
X104684819Y19354287D02*
X103684819Y19354287D01*
X27433619Y35826534D02*
X26957428Y35493201D01*
X27433619Y35255106D02*
X26433619Y35255106D01*
X26433619Y35255106D02*
X26433619Y35636058D01*
X26433619Y35636058D02*
X26481238Y35731296D01*
X26481238Y35731296D02*
X26528857Y35778915D01*
X26528857Y35778915D02*
X26624095Y35826534D01*
X26624095Y35826534D02*
X26766952Y35826534D01*
X26766952Y35826534D02*
X26862190Y35778915D01*
X26862190Y35778915D02*
X26909809Y35731296D01*
X26909809Y35731296D02*
X26957428Y35636058D01*
X26957428Y35636058D02*
X26957428Y35255106D01*
X27433619Y36778915D02*
X27433619Y36207487D01*
X27433619Y36493201D02*
X26433619Y36493201D01*
X26433619Y36493201D02*
X26576476Y36397963D01*
X26576476Y36397963D02*
X26671714Y36302725D01*
X26671714Y36302725D02*
X26719333Y36207487D01*
X17796619Y61964934D02*
X17320428Y61631601D01*
X17796619Y61393506D02*
X16796619Y61393506D01*
X16796619Y61393506D02*
X16796619Y61774458D01*
X16796619Y61774458D02*
X16844238Y61869696D01*
X16844238Y61869696D02*
X16891857Y61917315D01*
X16891857Y61917315D02*
X16987095Y61964934D01*
X16987095Y61964934D02*
X17129952Y61964934D01*
X17129952Y61964934D02*
X17225190Y61917315D01*
X17225190Y61917315D02*
X17272809Y61869696D01*
X17272809Y61869696D02*
X17320428Y61774458D01*
X17320428Y61774458D02*
X17320428Y61393506D01*
X17129952Y62822077D02*
X17796619Y62822077D01*
X16749000Y62583982D02*
X17463285Y62345887D01*
X17463285Y62345887D02*
X17463285Y62964934D01*
X102908619Y35125343D02*
X102432428Y34792010D01*
X102908619Y34553915D02*
X101908619Y34553915D01*
X101908619Y34553915D02*
X101908619Y34934867D01*
X101908619Y34934867D02*
X101956238Y35030105D01*
X101956238Y35030105D02*
X102003857Y35077724D01*
X102003857Y35077724D02*
X102099095Y35125343D01*
X102099095Y35125343D02*
X102241952Y35125343D01*
X102241952Y35125343D02*
X102337190Y35077724D01*
X102337190Y35077724D02*
X102384809Y35030105D01*
X102384809Y35030105D02*
X102432428Y34934867D01*
X102432428Y34934867D02*
X102432428Y34553915D01*
X102908619Y36077724D02*
X102908619Y35506296D01*
X102908619Y35792010D02*
X101908619Y35792010D01*
X101908619Y35792010D02*
X102051476Y35696772D01*
X102051476Y35696772D02*
X102146714Y35601534D01*
X102146714Y35601534D02*
X102194333Y35506296D01*
X102003857Y36458677D02*
X101956238Y36506296D01*
X101956238Y36506296D02*
X101908619Y36601534D01*
X101908619Y36601534D02*
X101908619Y36839629D01*
X101908619Y36839629D02*
X101956238Y36934867D01*
X101956238Y36934867D02*
X102003857Y36982486D01*
X102003857Y36982486D02*
X102099095Y37030105D01*
X102099095Y37030105D02*
X102194333Y37030105D01*
X102194333Y37030105D02*
X102337190Y36982486D01*
X102337190Y36982486D02*
X102908619Y36411058D01*
X102908619Y36411058D02*
X102908619Y37030105D01*
X119491209Y7338248D02*
X119538828Y7481105D01*
X119538828Y7481105D02*
X119586447Y7528724D01*
X119586447Y7528724D02*
X119681685Y7576343D01*
X119681685Y7576343D02*
X119824542Y7576343D01*
X119824542Y7576343D02*
X119919780Y7528724D01*
X119919780Y7528724D02*
X119967400Y7481105D01*
X119967400Y7481105D02*
X120015019Y7385867D01*
X120015019Y7385867D02*
X120015019Y7004915D01*
X120015019Y7004915D02*
X119015019Y7004915D01*
X119015019Y7004915D02*
X119015019Y7338248D01*
X119015019Y7338248D02*
X119062638Y7433486D01*
X119062638Y7433486D02*
X119110257Y7481105D01*
X119110257Y7481105D02*
X119205495Y7528724D01*
X119205495Y7528724D02*
X119300733Y7528724D01*
X119300733Y7528724D02*
X119395971Y7481105D01*
X119395971Y7481105D02*
X119443590Y7433486D01*
X119443590Y7433486D02*
X119491209Y7338248D01*
X119491209Y7338248D02*
X119491209Y7004915D01*
X119015019Y7909677D02*
X119015019Y8576343D01*
X119015019Y8576343D02*
X120015019Y7909677D01*
X120015019Y7909677D02*
X120015019Y8576343D01*
X120015019Y9481105D02*
X120015019Y8909677D01*
X120015019Y9195391D02*
X119015019Y9195391D01*
X119015019Y9195391D02*
X119157876Y9100153D01*
X119157876Y9100153D02*
X119253114Y9004915D01*
X119253114Y9004915D02*
X119300733Y8909677D01*
X117094066Y4028249D02*
X117094066Y4790153D01*
X117475019Y4409201D02*
X116713114Y4409201D01*
X38506895Y61775181D02*
X38506895Y60965658D01*
X38506895Y60965658D02*
X38554514Y60870420D01*
X38554514Y60870420D02*
X38602133Y60822800D01*
X38602133Y60822800D02*
X38697371Y60775181D01*
X38697371Y60775181D02*
X38887847Y60775181D01*
X38887847Y60775181D02*
X38983085Y60822800D01*
X38983085Y60822800D02*
X39030704Y60870420D01*
X39030704Y60870420D02*
X39078323Y60965658D01*
X39078323Y60965658D02*
X39078323Y61775181D01*
X40078323Y60775181D02*
X39506895Y60775181D01*
X39792609Y60775181D02*
X39792609Y61775181D01*
X39792609Y61775181D02*
X39697371Y61632324D01*
X39697371Y61632324D02*
X39602133Y61537086D01*
X39602133Y61537086D02*
X39506895Y61489467D01*
X21835219Y61964934D02*
X21359028Y61631601D01*
X21835219Y61393506D02*
X20835219Y61393506D01*
X20835219Y61393506D02*
X20835219Y61774458D01*
X20835219Y61774458D02*
X20882838Y61869696D01*
X20882838Y61869696D02*
X20930457Y61917315D01*
X20930457Y61917315D02*
X21025695Y61964934D01*
X21025695Y61964934D02*
X21168552Y61964934D01*
X21168552Y61964934D02*
X21263790Y61917315D01*
X21263790Y61917315D02*
X21311409Y61869696D01*
X21311409Y61869696D02*
X21359028Y61774458D01*
X21359028Y61774458D02*
X21359028Y61393506D01*
X20835219Y62298268D02*
X20835219Y62917315D01*
X20835219Y62917315D02*
X21216171Y62583982D01*
X21216171Y62583982D02*
X21216171Y62726839D01*
X21216171Y62726839D02*
X21263790Y62822077D01*
X21263790Y62822077D02*
X21311409Y62869696D01*
X21311409Y62869696D02*
X21406647Y62917315D01*
X21406647Y62917315D02*
X21644742Y62917315D01*
X21644742Y62917315D02*
X21739980Y62869696D01*
X21739980Y62869696D02*
X21787600Y62822077D01*
X21787600Y62822077D02*
X21835219Y62726839D01*
X21835219Y62726839D02*
X21835219Y62441125D01*
X21835219Y62441125D02*
X21787600Y62345887D01*
X21787600Y62345887D02*
X21739980Y62298268D01*
X25899219Y62015734D02*
X25423028Y61682401D01*
X25899219Y61444306D02*
X24899219Y61444306D01*
X24899219Y61444306D02*
X24899219Y61825258D01*
X24899219Y61825258D02*
X24946838Y61920496D01*
X24946838Y61920496D02*
X24994457Y61968115D01*
X24994457Y61968115D02*
X25089695Y62015734D01*
X25089695Y62015734D02*
X25232552Y62015734D01*
X25232552Y62015734D02*
X25327790Y61968115D01*
X25327790Y61968115D02*
X25375409Y61920496D01*
X25375409Y61920496D02*
X25423028Y61825258D01*
X25423028Y61825258D02*
X25423028Y61444306D01*
X24994457Y62396687D02*
X24946838Y62444306D01*
X24946838Y62444306D02*
X24899219Y62539544D01*
X24899219Y62539544D02*
X24899219Y62777639D01*
X24899219Y62777639D02*
X24946838Y62872877D01*
X24946838Y62872877D02*
X24994457Y62920496D01*
X24994457Y62920496D02*
X25089695Y62968115D01*
X25089695Y62968115D02*
X25184933Y62968115D01*
X25184933Y62968115D02*
X25327790Y62920496D01*
X25327790Y62920496D02*
X25899219Y62349068D01*
X25899219Y62349068D02*
X25899219Y62968115D01*
X118143333Y28125181D02*
X118143333Y29125181D01*
X118143333Y29125181D02*
X118476666Y28410896D01*
X118476666Y28410896D02*
X118809999Y29125181D01*
X118809999Y29125181D02*
X118809999Y28125181D01*
X119667142Y28172800D02*
X119571904Y28125181D01*
X119571904Y28125181D02*
X119381428Y28125181D01*
X119381428Y28125181D02*
X119286190Y28172800D01*
X119286190Y28172800D02*
X119238571Y28268039D01*
X119238571Y28268039D02*
X119238571Y28648991D01*
X119238571Y28648991D02*
X119286190Y28744229D01*
X119286190Y28744229D02*
X119381428Y28791848D01*
X119381428Y28791848D02*
X119571904Y28791848D01*
X119571904Y28791848D02*
X119667142Y28744229D01*
X119667142Y28744229D02*
X119714761Y28648991D01*
X119714761Y28648991D02*
X119714761Y28553753D01*
X119714761Y28553753D02*
X119238571Y28458515D01*
X120143333Y28791848D02*
X120143333Y28125181D01*
X120143333Y28696610D02*
X120190952Y28744229D01*
X120190952Y28744229D02*
X120286190Y28791848D01*
X120286190Y28791848D02*
X120429047Y28791848D01*
X120429047Y28791848D02*
X120524285Y28744229D01*
X120524285Y28744229D02*
X120571904Y28648991D01*
X120571904Y28648991D02*
X120571904Y28125181D01*
X121476666Y28791848D02*
X121476666Y28125181D01*
X121048095Y28791848D02*
X121048095Y28268039D01*
X121048095Y28268039D02*
X121095714Y28172800D01*
X121095714Y28172800D02*
X121190952Y28125181D01*
X121190952Y28125181D02*
X121333809Y28125181D01*
X121333809Y28125181D02*
X121429047Y28172800D01*
X121429047Y28172800D02*
X121476666Y28220420D01*
X13119580Y37833334D02*
X13167200Y37785715D01*
X13167200Y37785715D02*
X13214819Y37642858D01*
X13214819Y37642858D02*
X13214819Y37547620D01*
X13214819Y37547620D02*
X13167200Y37404763D01*
X13167200Y37404763D02*
X13071961Y37309525D01*
X13071961Y37309525D02*
X12976723Y37261906D01*
X12976723Y37261906D02*
X12786247Y37214287D01*
X12786247Y37214287D02*
X12643390Y37214287D01*
X12643390Y37214287D02*
X12452914Y37261906D01*
X12452914Y37261906D02*
X12357676Y37309525D01*
X12357676Y37309525D02*
X12262438Y37404763D01*
X12262438Y37404763D02*
X12214819Y37547620D01*
X12214819Y37547620D02*
X12214819Y37642858D01*
X12214819Y37642858D02*
X12262438Y37785715D01*
X12262438Y37785715D02*
X12310057Y37833334D01*
X13214819Y38785715D02*
X13214819Y38214287D01*
X13214819Y38500001D02*
X12214819Y38500001D01*
X12214819Y38500001D02*
X12357676Y38404763D01*
X12357676Y38404763D02*
X12452914Y38309525D01*
X12452914Y38309525D02*
X12500533Y38214287D01*
X7949580Y38353334D02*
X7997200Y38305715D01*
X7997200Y38305715D02*
X8044819Y38162858D01*
X8044819Y38162858D02*
X8044819Y38067620D01*
X8044819Y38067620D02*
X7997200Y37924763D01*
X7997200Y37924763D02*
X7901961Y37829525D01*
X7901961Y37829525D02*
X7806723Y37781906D01*
X7806723Y37781906D02*
X7616247Y37734287D01*
X7616247Y37734287D02*
X7473390Y37734287D01*
X7473390Y37734287D02*
X7282914Y37781906D01*
X7282914Y37781906D02*
X7187676Y37829525D01*
X7187676Y37829525D02*
X7092438Y37924763D01*
X7092438Y37924763D02*
X7044819Y38067620D01*
X7044819Y38067620D02*
X7044819Y38162858D01*
X7044819Y38162858D02*
X7092438Y38305715D01*
X7092438Y38305715D02*
X7140057Y38353334D01*
X7044819Y38686668D02*
X7044819Y39353334D01*
X7044819Y39353334D02*
X8044819Y38924763D01*
X8504819Y59177620D02*
X7504819Y59177620D01*
X8457200Y59606191D02*
X8504819Y59749048D01*
X8504819Y59749048D02*
X8504819Y59987143D01*
X8504819Y59987143D02*
X8457200Y60082381D01*
X8457200Y60082381D02*
X8409580Y60130000D01*
X8409580Y60130000D02*
X8314342Y60177619D01*
X8314342Y60177619D02*
X8219104Y60177619D01*
X8219104Y60177619D02*
X8123866Y60130000D01*
X8123866Y60130000D02*
X8076247Y60082381D01*
X8076247Y60082381D02*
X8028628Y59987143D01*
X8028628Y59987143D02*
X7981009Y59796667D01*
X7981009Y59796667D02*
X7933390Y59701429D01*
X7933390Y59701429D02*
X7885771Y59653810D01*
X7885771Y59653810D02*
X7790533Y59606191D01*
X7790533Y59606191D02*
X7695295Y59606191D01*
X7695295Y59606191D02*
X7600057Y59653810D01*
X7600057Y59653810D02*
X7552438Y59701429D01*
X7552438Y59701429D02*
X7504819Y59796667D01*
X7504819Y59796667D02*
X7504819Y60034762D01*
X7504819Y60034762D02*
X7552438Y60177619D01*
X8504819Y60606191D02*
X7504819Y60606191D01*
X7504819Y60606191D02*
X7504819Y60987143D01*
X7504819Y60987143D02*
X7552438Y61082381D01*
X7552438Y61082381D02*
X7600057Y61130000D01*
X7600057Y61130000D02*
X7695295Y61177619D01*
X7695295Y61177619D02*
X7838152Y61177619D01*
X7838152Y61177619D02*
X7933390Y61130000D01*
X7933390Y61130000D02*
X7981009Y61082381D01*
X7981009Y61082381D02*
X8028628Y60987143D01*
X8028628Y60987143D02*
X8028628Y60606191D01*
X8504819Y62130000D02*
X8504819Y61558572D01*
X8504819Y61844286D02*
X7504819Y61844286D01*
X7504819Y61844286D02*
X7647676Y61749048D01*
X7647676Y61749048D02*
X7742914Y61653810D01*
X7742914Y61653810D02*
X7790533Y61558572D01*
X97493619Y35030343D02*
X97017428Y34697010D01*
X97493619Y34458915D02*
X96493619Y34458915D01*
X96493619Y34458915D02*
X96493619Y34839867D01*
X96493619Y34839867D02*
X96541238Y34935105D01*
X96541238Y34935105D02*
X96588857Y34982724D01*
X96588857Y34982724D02*
X96684095Y35030343D01*
X96684095Y35030343D02*
X96826952Y35030343D01*
X96826952Y35030343D02*
X96922190Y34982724D01*
X96922190Y34982724D02*
X96969809Y34935105D01*
X96969809Y34935105D02*
X97017428Y34839867D01*
X97017428Y34839867D02*
X97017428Y34458915D01*
X97493619Y35982724D02*
X97493619Y35411296D01*
X97493619Y35697010D02*
X96493619Y35697010D01*
X96493619Y35697010D02*
X96636476Y35601772D01*
X96636476Y35601772D02*
X96731714Y35506534D01*
X96731714Y35506534D02*
X96779333Y35411296D01*
X96493619Y36316058D02*
X96493619Y36935105D01*
X96493619Y36935105D02*
X96874571Y36601772D01*
X96874571Y36601772D02*
X96874571Y36744629D01*
X96874571Y36744629D02*
X96922190Y36839867D01*
X96922190Y36839867D02*
X96969809Y36887486D01*
X96969809Y36887486D02*
X97065047Y36935105D01*
X97065047Y36935105D02*
X97303142Y36935105D01*
X97303142Y36935105D02*
X97398380Y36887486D01*
X97398380Y36887486D02*
X97446000Y36839867D01*
X97446000Y36839867D02*
X97493619Y36744629D01*
X97493619Y36744629D02*
X97493619Y36458915D01*
X97493619Y36458915D02*
X97446000Y36363677D01*
X97446000Y36363677D02*
X97398380Y36316058D01*
X13209580Y40493334D02*
X13257200Y40445715D01*
X13257200Y40445715D02*
X13304819Y40302858D01*
X13304819Y40302858D02*
X13304819Y40207620D01*
X13304819Y40207620D02*
X13257200Y40064763D01*
X13257200Y40064763D02*
X13161961Y39969525D01*
X13161961Y39969525D02*
X13066723Y39921906D01*
X13066723Y39921906D02*
X12876247Y39874287D01*
X12876247Y39874287D02*
X12733390Y39874287D01*
X12733390Y39874287D02*
X12542914Y39921906D01*
X12542914Y39921906D02*
X12447676Y39969525D01*
X12447676Y39969525D02*
X12352438Y40064763D01*
X12352438Y40064763D02*
X12304819Y40207620D01*
X12304819Y40207620D02*
X12304819Y40302858D01*
X12304819Y40302858D02*
X12352438Y40445715D01*
X12352438Y40445715D02*
X12400057Y40493334D01*
X12400057Y40874287D02*
X12352438Y40921906D01*
X12352438Y40921906D02*
X12304819Y41017144D01*
X12304819Y41017144D02*
X12304819Y41255239D01*
X12304819Y41255239D02*
X12352438Y41350477D01*
X12352438Y41350477D02*
X12400057Y41398096D01*
X12400057Y41398096D02*
X12495295Y41445715D01*
X12495295Y41445715D02*
X12590533Y41445715D01*
X12590533Y41445715D02*
X12733390Y41398096D01*
X12733390Y41398096D02*
X13304819Y40826668D01*
X13304819Y40826668D02*
X13304819Y41445715D01*
X20947580Y22759734D02*
X20995200Y22712115D01*
X20995200Y22712115D02*
X21042819Y22569258D01*
X21042819Y22569258D02*
X21042819Y22474020D01*
X21042819Y22474020D02*
X20995200Y22331163D01*
X20995200Y22331163D02*
X20899961Y22235925D01*
X20899961Y22235925D02*
X20804723Y22188306D01*
X20804723Y22188306D02*
X20614247Y22140687D01*
X20614247Y22140687D02*
X20471390Y22140687D01*
X20471390Y22140687D02*
X20280914Y22188306D01*
X20280914Y22188306D02*
X20185676Y22235925D01*
X20185676Y22235925D02*
X20090438Y22331163D01*
X20090438Y22331163D02*
X20042819Y22474020D01*
X20042819Y22474020D02*
X20042819Y22569258D01*
X20042819Y22569258D02*
X20090438Y22712115D01*
X20090438Y22712115D02*
X20138057Y22759734D01*
X20042819Y23616877D02*
X20042819Y23426401D01*
X20042819Y23426401D02*
X20090438Y23331163D01*
X20090438Y23331163D02*
X20138057Y23283544D01*
X20138057Y23283544D02*
X20280914Y23188306D01*
X20280914Y23188306D02*
X20471390Y23140687D01*
X20471390Y23140687D02*
X20852342Y23140687D01*
X20852342Y23140687D02*
X20947580Y23188306D01*
X20947580Y23188306D02*
X20995200Y23235925D01*
X20995200Y23235925D02*
X21042819Y23331163D01*
X21042819Y23331163D02*
X21042819Y23521639D01*
X21042819Y23521639D02*
X20995200Y23616877D01*
X20995200Y23616877D02*
X20947580Y23664496D01*
X20947580Y23664496D02*
X20852342Y23712115D01*
X20852342Y23712115D02*
X20614247Y23712115D01*
X20614247Y23712115D02*
X20519009Y23664496D01*
X20519009Y23664496D02*
X20471390Y23616877D01*
X20471390Y23616877D02*
X20423771Y23521639D01*
X20423771Y23521639D02*
X20423771Y23331163D01*
X20423771Y23331163D02*
X20471390Y23235925D01*
X20471390Y23235925D02*
X20519009Y23188306D01*
X20519009Y23188306D02*
X20614247Y23140687D01*
X108323619Y35220343D02*
X107847428Y34887010D01*
X108323619Y34648915D02*
X107323619Y34648915D01*
X107323619Y34648915D02*
X107323619Y35029867D01*
X107323619Y35029867D02*
X107371238Y35125105D01*
X107371238Y35125105D02*
X107418857Y35172724D01*
X107418857Y35172724D02*
X107514095Y35220343D01*
X107514095Y35220343D02*
X107656952Y35220343D01*
X107656952Y35220343D02*
X107752190Y35172724D01*
X107752190Y35172724D02*
X107799809Y35125105D01*
X107799809Y35125105D02*
X107847428Y35029867D01*
X107847428Y35029867D02*
X107847428Y34648915D01*
X108323619Y36172724D02*
X108323619Y35601296D01*
X108323619Y35887010D02*
X107323619Y35887010D01*
X107323619Y35887010D02*
X107466476Y35791772D01*
X107466476Y35791772D02*
X107561714Y35696534D01*
X107561714Y35696534D02*
X107609333Y35601296D01*
X108323619Y37125105D02*
X108323619Y36553677D01*
X108323619Y36839391D02*
X107323619Y36839391D01*
X107323619Y36839391D02*
X107466476Y36744153D01*
X107466476Y36744153D02*
X107561714Y36648915D01*
X107561714Y36648915D02*
X107609333Y36553677D01*
X93065019Y51726343D02*
X92588828Y51393010D01*
X93065019Y51154915D02*
X92065019Y51154915D01*
X92065019Y51154915D02*
X92065019Y51535867D01*
X92065019Y51535867D02*
X92112638Y51631105D01*
X92112638Y51631105D02*
X92160257Y51678724D01*
X92160257Y51678724D02*
X92255495Y51726343D01*
X92255495Y51726343D02*
X92398352Y51726343D01*
X92398352Y51726343D02*
X92493590Y51678724D01*
X92493590Y51678724D02*
X92541209Y51631105D01*
X92541209Y51631105D02*
X92588828Y51535867D01*
X92588828Y51535867D02*
X92588828Y51154915D01*
X93065019Y52678724D02*
X93065019Y52107296D01*
X93065019Y52393010D02*
X92065019Y52393010D01*
X92065019Y52393010D02*
X92207876Y52297772D01*
X92207876Y52297772D02*
X92303114Y52202534D01*
X92303114Y52202534D02*
X92350733Y52107296D01*
X92398352Y53535867D02*
X93065019Y53535867D01*
X92017400Y53297772D02*
X92731685Y53059677D01*
X92731685Y53059677D02*
X92731685Y53678724D01*
X3829019Y44890305D02*
X3352828Y44556972D01*
X3829019Y44318877D02*
X2829019Y44318877D01*
X2829019Y44318877D02*
X2829019Y44699829D01*
X2829019Y44699829D02*
X2876638Y44795067D01*
X2876638Y44795067D02*
X2924257Y44842686D01*
X2924257Y44842686D02*
X3019495Y44890305D01*
X3019495Y44890305D02*
X3162352Y44890305D01*
X3162352Y44890305D02*
X3257590Y44842686D01*
X3257590Y44842686D02*
X3305209Y44795067D01*
X3305209Y44795067D02*
X3352828Y44699829D01*
X3352828Y44699829D02*
X3352828Y44318877D01*
X3781400Y45699829D02*
X3829019Y45604591D01*
X3829019Y45604591D02*
X3829019Y45414115D01*
X3829019Y45414115D02*
X3781400Y45318877D01*
X3781400Y45318877D02*
X3686161Y45271258D01*
X3686161Y45271258D02*
X3305209Y45271258D01*
X3305209Y45271258D02*
X3209971Y45318877D01*
X3209971Y45318877D02*
X3162352Y45414115D01*
X3162352Y45414115D02*
X3162352Y45604591D01*
X3162352Y45604591D02*
X3209971Y45699829D01*
X3209971Y45699829D02*
X3305209Y45747448D01*
X3305209Y45747448D02*
X3400447Y45747448D01*
X3400447Y45747448D02*
X3495685Y45271258D01*
X3781400Y46128401D02*
X3829019Y46223639D01*
X3829019Y46223639D02*
X3829019Y46414115D01*
X3829019Y46414115D02*
X3781400Y46509353D01*
X3781400Y46509353D02*
X3686161Y46556972D01*
X3686161Y46556972D02*
X3638542Y46556972D01*
X3638542Y46556972D02*
X3543304Y46509353D01*
X3543304Y46509353D02*
X3495685Y46414115D01*
X3495685Y46414115D02*
X3495685Y46271258D01*
X3495685Y46271258D02*
X3448066Y46176020D01*
X3448066Y46176020D02*
X3352828Y46128401D01*
X3352828Y46128401D02*
X3305209Y46128401D01*
X3305209Y46128401D02*
X3209971Y46176020D01*
X3209971Y46176020D02*
X3162352Y46271258D01*
X3162352Y46271258D02*
X3162352Y46414115D01*
X3162352Y46414115D02*
X3209971Y46509353D01*
X3781400Y47366496D02*
X3829019Y47271258D01*
X3829019Y47271258D02*
X3829019Y47080782D01*
X3829019Y47080782D02*
X3781400Y46985544D01*
X3781400Y46985544D02*
X3686161Y46937925D01*
X3686161Y46937925D02*
X3305209Y46937925D01*
X3305209Y46937925D02*
X3209971Y46985544D01*
X3209971Y46985544D02*
X3162352Y47080782D01*
X3162352Y47080782D02*
X3162352Y47271258D01*
X3162352Y47271258D02*
X3209971Y47366496D01*
X3209971Y47366496D02*
X3305209Y47414115D01*
X3305209Y47414115D02*
X3400447Y47414115D01*
X3400447Y47414115D02*
X3495685Y46937925D01*
X3162352Y47699830D02*
X3162352Y48080782D01*
X2829019Y47842687D02*
X3686161Y47842687D01*
X3686161Y47842687D02*
X3781400Y47890306D01*
X3781400Y47890306D02*
X3829019Y47985544D01*
X3829019Y47985544D02*
X3829019Y48080782D01*
X29439780Y22682534D02*
X29487400Y22634915D01*
X29487400Y22634915D02*
X29535019Y22492058D01*
X29535019Y22492058D02*
X29535019Y22396820D01*
X29535019Y22396820D02*
X29487400Y22253963D01*
X29487400Y22253963D02*
X29392161Y22158725D01*
X29392161Y22158725D02*
X29296923Y22111106D01*
X29296923Y22111106D02*
X29106447Y22063487D01*
X29106447Y22063487D02*
X28963590Y22063487D01*
X28963590Y22063487D02*
X28773114Y22111106D01*
X28773114Y22111106D02*
X28677876Y22158725D01*
X28677876Y22158725D02*
X28582638Y22253963D01*
X28582638Y22253963D02*
X28535019Y22396820D01*
X28535019Y22396820D02*
X28535019Y22492058D01*
X28535019Y22492058D02*
X28582638Y22634915D01*
X28582638Y22634915D02*
X28630257Y22682534D01*
X28535019Y23587296D02*
X28535019Y23111106D01*
X28535019Y23111106D02*
X29011209Y23063487D01*
X29011209Y23063487D02*
X28963590Y23111106D01*
X28963590Y23111106D02*
X28915971Y23206344D01*
X28915971Y23206344D02*
X28915971Y23444439D01*
X28915971Y23444439D02*
X28963590Y23539677D01*
X28963590Y23539677D02*
X29011209Y23587296D01*
X29011209Y23587296D02*
X29106447Y23634915D01*
X29106447Y23634915D02*
X29344542Y23634915D01*
X29344542Y23634915D02*
X29439780Y23587296D01*
X29439780Y23587296D02*
X29487400Y23539677D01*
X29487400Y23539677D02*
X29535019Y23444439D01*
X29535019Y23444439D02*
X29535019Y23206344D01*
X29535019Y23206344D02*
X29487400Y23111106D01*
X29487400Y23111106D02*
X29439780Y23063487D01*
X101604819Y46354286D02*
X101604819Y46925714D01*
X102604819Y46640000D02*
X101604819Y46640000D01*
X102081009Y47259048D02*
X102081009Y47592381D01*
X102604819Y47735238D02*
X102604819Y47259048D01*
X102604819Y47259048D02*
X101604819Y47259048D01*
X101604819Y47259048D02*
X101604819Y47735238D01*
X102604819Y48163810D02*
X101604819Y48163810D01*
X101604819Y48163810D02*
X102319104Y48497143D01*
X102319104Y48497143D02*
X101604819Y48830476D01*
X101604819Y48830476D02*
X102604819Y48830476D01*
X102604819Y49306667D02*
X101604819Y49306667D01*
X101604819Y49306667D02*
X101604819Y49687619D01*
X101604819Y49687619D02*
X101652438Y49782857D01*
X101652438Y49782857D02*
X101700057Y49830476D01*
X101700057Y49830476D02*
X101795295Y49878095D01*
X101795295Y49878095D02*
X101938152Y49878095D01*
X101938152Y49878095D02*
X102033390Y49830476D01*
X102033390Y49830476D02*
X102081009Y49782857D01*
X102081009Y49782857D02*
X102128628Y49687619D01*
X102128628Y49687619D02*
X102128628Y49306667D01*
X102081009Y50306667D02*
X102081009Y50640000D01*
X102604819Y50782857D02*
X102604819Y50306667D01*
X102604819Y50306667D02*
X101604819Y50306667D01*
X101604819Y50306667D02*
X101604819Y50782857D01*
X102604819Y51782857D02*
X102128628Y51449524D01*
X102604819Y51211429D02*
X101604819Y51211429D01*
X101604819Y51211429D02*
X101604819Y51592381D01*
X101604819Y51592381D02*
X101652438Y51687619D01*
X101652438Y51687619D02*
X101700057Y51735238D01*
X101700057Y51735238D02*
X101795295Y51782857D01*
X101795295Y51782857D02*
X101938152Y51782857D01*
X101938152Y51782857D02*
X102033390Y51735238D01*
X102033390Y51735238D02*
X102081009Y51687619D01*
X102081009Y51687619D02*
X102128628Y51592381D01*
X102128628Y51592381D02*
X102128628Y51211429D01*
X102319104Y52163810D02*
X102319104Y52640000D01*
X102604819Y52068572D02*
X101604819Y52401905D01*
X101604819Y52401905D02*
X102604819Y52735238D01*
X101604819Y52925715D02*
X101604819Y53497143D01*
X102604819Y53211429D02*
X101604819Y53211429D01*
X101604819Y53830477D02*
X102414342Y53830477D01*
X102414342Y53830477D02*
X102509580Y53878096D01*
X102509580Y53878096D02*
X102557200Y53925715D01*
X102557200Y53925715D02*
X102604819Y54020953D01*
X102604819Y54020953D02*
X102604819Y54211429D01*
X102604819Y54211429D02*
X102557200Y54306667D01*
X102557200Y54306667D02*
X102509580Y54354286D01*
X102509580Y54354286D02*
X102414342Y54401905D01*
X102414342Y54401905D02*
X101604819Y54401905D01*
X102604819Y55449524D02*
X102128628Y55116191D01*
X102604819Y54878096D02*
X101604819Y54878096D01*
X101604819Y54878096D02*
X101604819Y55259048D01*
X101604819Y55259048D02*
X101652438Y55354286D01*
X101652438Y55354286D02*
X101700057Y55401905D01*
X101700057Y55401905D02*
X101795295Y55449524D01*
X101795295Y55449524D02*
X101938152Y55449524D01*
X101938152Y55449524D02*
X102033390Y55401905D01*
X102033390Y55401905D02*
X102081009Y55354286D01*
X102081009Y55354286D02*
X102128628Y55259048D01*
X102128628Y55259048D02*
X102128628Y54878096D01*
X102081009Y55878096D02*
X102081009Y56211429D01*
X102604819Y56354286D02*
X102604819Y55878096D01*
X102604819Y55878096D02*
X101604819Y55878096D01*
X101604819Y55878096D02*
X101604819Y56354286D01*
X102509580Y58116191D02*
X102557200Y58068572D01*
X102557200Y58068572D02*
X102604819Y57925715D01*
X102604819Y57925715D02*
X102604819Y57830477D01*
X102604819Y57830477D02*
X102557200Y57687620D01*
X102557200Y57687620D02*
X102461961Y57592382D01*
X102461961Y57592382D02*
X102366723Y57544763D01*
X102366723Y57544763D02*
X102176247Y57497144D01*
X102176247Y57497144D02*
X102033390Y57497144D01*
X102033390Y57497144D02*
X101842914Y57544763D01*
X101842914Y57544763D02*
X101747676Y57592382D01*
X101747676Y57592382D02*
X101652438Y57687620D01*
X101652438Y57687620D02*
X101604819Y57830477D01*
X101604819Y57830477D02*
X101604819Y57925715D01*
X101604819Y57925715D02*
X101652438Y58068572D01*
X101652438Y58068572D02*
X101700057Y58116191D01*
X101604819Y58735239D02*
X101604819Y58925715D01*
X101604819Y58925715D02*
X101652438Y59020953D01*
X101652438Y59020953D02*
X101747676Y59116191D01*
X101747676Y59116191D02*
X101938152Y59163810D01*
X101938152Y59163810D02*
X102271485Y59163810D01*
X102271485Y59163810D02*
X102461961Y59116191D01*
X102461961Y59116191D02*
X102557200Y59020953D01*
X102557200Y59020953D02*
X102604819Y58925715D01*
X102604819Y58925715D02*
X102604819Y58735239D01*
X102604819Y58735239D02*
X102557200Y58640001D01*
X102557200Y58640001D02*
X102461961Y58544763D01*
X102461961Y58544763D02*
X102271485Y58497144D01*
X102271485Y58497144D02*
X101938152Y58497144D01*
X101938152Y58497144D02*
X101747676Y58544763D01*
X101747676Y58544763D02*
X101652438Y58640001D01*
X101652438Y58640001D02*
X101604819Y58735239D01*
X102604819Y59592382D02*
X101604819Y59592382D01*
X101604819Y59592382D02*
X102604819Y60163810D01*
X102604819Y60163810D02*
X101604819Y60163810D01*
X101604819Y60497144D02*
X101604819Y61068572D01*
X102604819Y60782858D02*
X101604819Y60782858D01*
X102604819Y61973334D02*
X102128628Y61640001D01*
X102604819Y61401906D02*
X101604819Y61401906D01*
X101604819Y61401906D02*
X101604819Y61782858D01*
X101604819Y61782858D02*
X101652438Y61878096D01*
X101652438Y61878096D02*
X101700057Y61925715D01*
X101700057Y61925715D02*
X101795295Y61973334D01*
X101795295Y61973334D02*
X101938152Y61973334D01*
X101938152Y61973334D02*
X102033390Y61925715D01*
X102033390Y61925715D02*
X102081009Y61878096D01*
X102081009Y61878096D02*
X102128628Y61782858D01*
X102128628Y61782858D02*
X102128628Y61401906D01*
X101604819Y62592382D02*
X101604819Y62782858D01*
X101604819Y62782858D02*
X101652438Y62878096D01*
X101652438Y62878096D02*
X101747676Y62973334D01*
X101747676Y62973334D02*
X101938152Y63020953D01*
X101938152Y63020953D02*
X102271485Y63020953D01*
X102271485Y63020953D02*
X102461961Y62973334D01*
X102461961Y62973334D02*
X102557200Y62878096D01*
X102557200Y62878096D02*
X102604819Y62782858D01*
X102604819Y62782858D02*
X102604819Y62592382D01*
X102604819Y62592382D02*
X102557200Y62497144D01*
X102557200Y62497144D02*
X102461961Y62401906D01*
X102461961Y62401906D02*
X102271485Y62354287D01*
X102271485Y62354287D02*
X101938152Y62354287D01*
X101938152Y62354287D02*
X101747676Y62401906D01*
X101747676Y62401906D02*
X101652438Y62497144D01*
X101652438Y62497144D02*
X101604819Y62592382D01*
X102604819Y63925715D02*
X102604819Y63449525D01*
X102604819Y63449525D02*
X101604819Y63449525D01*
D11*
%TO.C,Y1*%
X19682000Y36149400D02*
X19682000Y42549400D01*
X24552000Y42549400D02*
X24552000Y36149400D01*
X19682000Y42549400D02*
G75*
G02*
X24552000Y42549400I2435000J0D01*
G01*
X24552000Y36149400D02*
G75*
G02*
X19682000Y36149400I-2435000J0D01*
G01*
%TO.C,POWER CONTROL*%
X96640200Y20159200D02*
X96640200Y7239200D01*
X96640200Y17979200D02*
X97240200Y17979200D01*
X96640200Y15439200D02*
X97240200Y15439200D01*
X96640200Y12899200D02*
X97240200Y12899200D01*
X96640200Y10359200D02*
X97240200Y10359200D01*
X96640200Y7819200D02*
X97240200Y7819200D01*
X96640200Y7239200D02*
X102660200Y7239200D01*
X97240200Y19579200D02*
X96640200Y19579200D01*
X97240200Y17979200D02*
X97240200Y19579200D01*
X97240200Y17039200D02*
X96640200Y17039200D01*
X97240200Y15439200D02*
X97240200Y17039200D01*
X97240200Y14499200D02*
X96640200Y14499200D01*
X97240200Y12899200D02*
X97240200Y14499200D01*
X97240200Y11959200D02*
X96640200Y11959200D01*
X97240200Y10359200D02*
X97240200Y11959200D01*
X97240200Y9419200D02*
X96640200Y9419200D01*
X97240200Y7819200D02*
X97240200Y9419200D01*
X97670200Y6949200D02*
X101670200Y6949200D01*
X101130200Y18529200D02*
X101660200Y18779200D01*
X101130200Y8869200D02*
X101130200Y18529200D01*
X101660200Y18779200D02*
X102660200Y18779200D01*
X101660200Y8619200D02*
X101130200Y8869200D01*
X101660200Y8619200D02*
X101660200Y18779200D01*
X102660200Y20159200D02*
X96640200Y20159200D01*
X102660200Y18529200D02*
X101660200Y18529200D01*
X102660200Y8869200D02*
X101660200Y8869200D01*
X102660200Y8619200D02*
X101660200Y8619200D01*
X102660200Y7239200D02*
X102660200Y20159200D01*
%TO.C,R1*%
X26978800Y41303200D02*
X26978800Y40613200D01*
X26978800Y30683200D02*
X26978800Y31373200D01*
X25258800Y31373200D02*
X28698800Y31373200D01*
X28698800Y40613200D01*
X25258800Y40613200D01*
X25258800Y31373200D01*
%TO.C,R4*%
X17341800Y67441600D02*
X17341800Y66751600D01*
X17341800Y56821600D02*
X17341800Y57511600D01*
X19061800Y66751600D02*
X15621800Y66751600D01*
X15621800Y57511600D01*
X19061800Y57511600D01*
X19061800Y66751600D01*
%TO.C,R12*%
X102453800Y41078200D02*
X102453800Y40388200D01*
X102453800Y30458200D02*
X102453800Y31148200D01*
X100733800Y31148200D02*
X104173800Y31148200D01*
X104173800Y40388200D01*
X100733800Y40388200D01*
X100733800Y31148200D01*
%TO.C,BZ1*%
X125660200Y8219200D02*
G75*
G02*
X113460200Y8219200I-6100000J0D01*
G01*
X113460200Y8219200D02*
G75*
G02*
X125660200Y8219200I6100000J0D01*
G01*
%TO.C,U1*%
X32808800Y64138200D02*
X32808800Y13218200D01*
X32808800Y13218200D02*
X45728800Y13218200D01*
X38268800Y64138200D02*
X32808800Y64138200D01*
X45728800Y64138200D02*
X40268800Y64138200D01*
X45728800Y13218200D02*
X45728800Y64138200D01*
X40268800Y64138200D02*
G75*
G02*
X38268800Y64138200I-1000000J0D01*
G01*
%TO.C,R3*%
X21380400Y67441600D02*
X21380400Y66751600D01*
X21380400Y56821600D02*
X21380400Y57511600D01*
X23100400Y66751600D02*
X19660400Y66751600D01*
X19660400Y57511600D01*
X23100400Y57511600D01*
X23100400Y66751600D01*
%TO.C,R2*%
X25444400Y67492400D02*
X25444400Y66802400D01*
X25444400Y56872400D02*
X25444400Y57562400D01*
X27164400Y66802400D02*
X23724400Y66802400D01*
X23724400Y57562400D01*
X27164400Y57562400D01*
X27164400Y66802400D01*
%TO.C,Menu*%
X114008800Y25713200D02*
X114008800Y29813200D01*
X114008800Y17613200D02*
X114008800Y21713200D01*
X116408800Y17613200D02*
X114008800Y17613200D01*
X119908800Y24213200D02*
X119908800Y23213200D01*
X120408800Y23713200D02*
X119408800Y23713200D01*
X121208800Y17613200D02*
X118608800Y17613200D01*
X123708800Y31213200D02*
X124008800Y31513200D01*
X124008800Y31513200D02*
X124008800Y30913200D01*
X124008800Y30913200D02*
X123708800Y31213200D01*
X125808800Y29813200D02*
X114008800Y29813200D01*
X125808800Y25713200D02*
X125808800Y29813200D01*
X125808800Y21713200D02*
X125808800Y17613200D01*
X125808800Y17613200D02*
X123408800Y17613200D01*
X122908800Y23713200D02*
G75*
G02*
X116908800Y23713200I-3000000J0D01*
G01*
X116908800Y23713200D02*
G75*
G02*
X122908800Y23713200I3000000J0D01*
G01*
%TO.C,C1*%
X13497200Y39193800D02*
X18737200Y39193800D01*
X13497200Y36453800D02*
X13497200Y39193800D01*
X18737200Y39193800D02*
X18737200Y36453800D01*
X18737200Y36453800D02*
X13497200Y36453800D01*
%TO.C,C7*%
X8453400Y41078800D02*
X11193400Y41078800D01*
X8453400Y35838800D02*
X8453400Y41078800D01*
X11193400Y41078800D02*
X11193400Y35838800D01*
X11193400Y35838800D02*
X8453400Y35838800D01*
%TO.C,ISP1*%
X8976800Y53741200D02*
X8976800Y66661200D01*
X11626800Y56391200D02*
X11626800Y53741200D01*
X11626800Y53741200D02*
X8976800Y53741200D01*
X14276800Y66661200D02*
X8976800Y66661200D01*
X14276800Y56391200D02*
X11626800Y56391200D01*
X14276800Y56391200D02*
X14276800Y66661200D01*
X14276800Y55121200D02*
X14276800Y53741200D01*
X14276800Y53741200D02*
X12896800Y53741200D01*
%TO.C,R13*%
X97038800Y40983200D02*
X97038800Y40293200D01*
X97038800Y30363200D02*
X97038800Y31053200D01*
X95318800Y31053200D02*
X98758800Y31053200D01*
X98758800Y40293200D01*
X95318800Y40293200D01*
X95318800Y31053200D01*
%TO.C,C2*%
X13558800Y42292600D02*
X18798800Y42292600D01*
X13558800Y39552600D02*
X13558800Y42292600D01*
X18798800Y42292600D02*
X18798800Y39552600D01*
X18798800Y39552600D02*
X13558800Y39552600D01*
%TO.C,C6*%
X21718000Y25546400D02*
X24458000Y25546400D01*
X21718000Y20306400D02*
X21718000Y25546400D01*
X24458000Y25546400D02*
X24458000Y20306400D01*
X24458000Y20306400D02*
X21718000Y20306400D01*
%TO.C,R11*%
X107868800Y41173200D02*
X107868800Y40483200D01*
X107868800Y30553200D02*
X107868800Y31243200D01*
X106148800Y31243200D02*
X109588800Y31243200D01*
X109588800Y40483200D01*
X106148800Y40483200D01*
X106148800Y31243200D01*
%TO.C,LCD1*%
D12*
X95000000Y3000000D02*
X2000000Y3000000D01*
X2000000Y73000000D01*
X95000000Y73000000D01*
X95000000Y3000000D01*
D11*
%TO.C,R14*%
X92610200Y57679200D02*
X92610200Y56989200D01*
X92610200Y47059200D02*
X92610200Y47749200D01*
X94330200Y56989200D02*
X90890200Y56989200D01*
X90890200Y47749200D01*
X94330200Y47749200D01*
X94330200Y56989200D01*
%TO.C,Reset*%
X4374200Y48378400D02*
X4374200Y43878400D01*
X6874200Y42628400D02*
X8374200Y42628400D01*
X8374200Y49628400D02*
X6874200Y49628400D01*
X10874200Y43878400D02*
X10874200Y48378400D01*
%TO.C,C5*%
X25008000Y25546400D02*
X27748000Y25546400D01*
X25008000Y20306400D02*
X25008000Y25546400D01*
X27748000Y25546400D02*
X27748000Y20306400D01*
X27748000Y20306400D02*
X25008000Y20306400D01*
%TO.C,TEMPERATURE CONTROL*%
X98138800Y47133200D02*
X98138800Y65023200D01*
X100898800Y65023200D02*
X98138800Y65023200D01*
X100898800Y47133200D02*
X98138800Y47133200D01*
X100898800Y47133200D02*
X100898800Y65023200D01*
X100898800Y45863200D02*
X100898800Y44483200D01*
X100898800Y44483200D02*
X99518800Y44483200D01*
%TD*%
M02*
