%TF.GenerationSoftware,KiCad,Pcbnew,9.0.6*%
%TF.CreationDate,2026-03-23T22:10:56-05:00*%
%TF.ProjectId,controller,636f6e74-726f-46c6-9c65-722e6b696361,rev?*%
%TF.SameCoordinates,PXf42400PY56c8cc0*%
%TF.FileFunction,Soldermask,Bot*%
%TF.FilePolarity,Negative*%
%FSLAX46Y46*%
G04 Gerber Fmt 4.6, Leading zero omitted, Abs format (unit mm)*
G04 Created by KiCad (PCBNEW 9.0.6) date 2026-03-23 22:10:56*
%MOMM*%
%LPD*%
G01*
G04 APERTURE LIST*
G04 Aperture macros list*
%AMRoundRect*
0 Rectangle with rounded corners*
0 $1 Rounding radius*
0 $2 $3 $4 $5 $6 $7 $8 $9 X,Y pos of 4 corners*
0 Add a 4 corners polygon primitive as box body*
4,1,4,$2,$3,$4,$5,$6,$7,$8,$9,$2,$3,0*
0 Add four circle primitives for the rounded corners*
1,1,$1+$1,$2,$3*
1,1,$1+$1,$4,$5*
1,1,$1+$1,$6,$7*
1,1,$1+$1,$8,$9*
0 Add four rect primitives between the rounded corners*
20,1,$1+$1,$2,$3,$4,$5,0*
20,1,$1+$1,$4,$5,$6,$7,0*
20,1,$1+$1,$6,$7,$8,$9,0*
20,1,$1+$1,$8,$9,$2,$3,0*%
G04 Aperture macros list end*
%ADD10C,1.500000*%
%ADD11RoundRect,0.250000X0.845000X-0.620000X0.845000X0.620000X-0.845000X0.620000X-0.845000X-0.620000X0*%
%ADD12O,2.190000X1.740000*%
%ADD13C,1.600000*%
%ADD14R,2.000000X2.000000*%
%ADD15C,2.000000*%
%ADD16RoundRect,0.250000X-0.550000X-0.550000X0.550000X-0.550000X0.550000X0.550000X-0.550000X0.550000X0*%
%ADD17R,2.000000X3.200000*%
%ADD18R,1.700000X1.700000*%
%ADD19C,1.700000*%
%ADD20C,5.500000*%
%ADD21O,1.270000X1.905000*%
%ADD22RoundRect,0.250000X0.650000X-1.000000X0.650000X1.000000X-0.650000X1.000000X-0.650000X-1.000000X0*%
%ADD23R,3.000000X1.250000*%
%ADD24C,3.000000*%
%ADD25RoundRect,0.250000X-0.650000X1.000000X-0.650000X-1.000000X0.650000X-1.000000X0.650000X1.000000X0*%
%ADD26RoundRect,0.150000X0.150000X-0.825000X0.150000X0.825000X-0.150000X0.825000X-0.150000X-0.825000X0*%
G04 APERTURE END LIST*
D10*
%TO.C,Y1*%
X22117000Y36909400D03*
X22117000Y41789400D03*
%TD*%
D11*
%TO.C,POWER CONTROL*%
X99670200Y8619200D03*
D12*
X99670200Y11159200D03*
X99670200Y13699200D03*
X99670200Y16239200D03*
X99670200Y18779200D03*
%TD*%
D13*
%TO.C,R1*%
X26978800Y29643200D03*
X26978800Y42343200D03*
%TD*%
%TO.C,R4*%
X17341800Y68481600D03*
X17341800Y55781600D03*
%TD*%
%TO.C,R12*%
X102453800Y29418200D03*
X102453800Y42118200D03*
%TD*%
D14*
%TO.C,BZ1*%
X119560200Y4419200D03*
D15*
X119560200Y12019200D03*
%TD*%
D16*
%TO.C,U1*%
X31648800Y62808200D03*
D13*
X31648800Y60268200D03*
X31648800Y57728200D03*
X31648800Y55188200D03*
X31648800Y52648200D03*
X31648800Y50108200D03*
X31648800Y47568200D03*
X31648800Y45028200D03*
X31648800Y42488200D03*
X31648800Y39948200D03*
X31648800Y37408200D03*
X31648800Y34868200D03*
X31648800Y32328200D03*
X31648800Y29788200D03*
X31648800Y27248200D03*
X31648800Y24708200D03*
X31648800Y22168200D03*
X31648800Y19628200D03*
X31648800Y17088200D03*
X31648800Y14548200D03*
X46888800Y14548200D03*
X46888800Y17088200D03*
X46888800Y19628200D03*
X46888800Y22168200D03*
X46888800Y24708200D03*
X46888800Y27248200D03*
X46888800Y29788200D03*
X46888800Y32328200D03*
X46888800Y34868200D03*
X46888800Y37408200D03*
X46888800Y39948200D03*
X46888800Y42488200D03*
X46888800Y45028200D03*
X46888800Y47568200D03*
X46888800Y50108200D03*
X46888800Y52648200D03*
X46888800Y55188200D03*
X46888800Y57728200D03*
X46888800Y60268200D03*
X46888800Y62808200D03*
%TD*%
%TO.C,R3*%
X21380400Y68481600D03*
X21380400Y55781600D03*
%TD*%
%TO.C,R2*%
X25444400Y68532400D03*
X25444400Y55832400D03*
%TD*%
D14*
%TO.C,Menu*%
X122408800Y31213200D03*
D15*
X117408800Y31213200D03*
X119908800Y31213200D03*
D17*
X125508800Y23713200D03*
X114308800Y23713200D03*
D15*
X117408800Y16713200D03*
X122408800Y16713200D03*
%TD*%
D13*
%TO.C,C1*%
X17367200Y37823800D03*
X14867200Y37823800D03*
%TD*%
%TO.C,C7*%
X9823400Y39708800D03*
X9823400Y37208800D03*
%TD*%
D18*
%TO.C,ISP1*%
X12896800Y55121200D03*
D19*
X10356800Y55121200D03*
X12896800Y57661200D03*
X10356800Y57661200D03*
X12896800Y60201200D03*
X10356800Y60201200D03*
X12896800Y62741200D03*
X10356800Y62741200D03*
X12896800Y65281200D03*
X10356800Y65281200D03*
%TD*%
D13*
%TO.C,R13*%
X97038800Y29323200D03*
X97038800Y42023200D03*
%TD*%
%TO.C,C2*%
X17428800Y40922600D03*
X14928800Y40922600D03*
%TD*%
%TO.C,C6*%
X23088000Y21676400D03*
X23088000Y24176400D03*
%TD*%
%TO.C,R11*%
X107868800Y29513200D03*
X107868800Y42213200D03*
%TD*%
D20*
%TO.C,LCD1*%
X92500000Y5500000D03*
X92500000Y70500000D03*
X4500000Y5500000D03*
X4500000Y70500000D03*
D21*
X32240000Y70500000D03*
X34780000Y70500000D03*
X37320000Y70500000D03*
X39860000Y70500000D03*
X42400000Y70500000D03*
X44940000Y70500000D03*
X47480000Y70500000D03*
X50020000Y70500000D03*
X52560000Y70500000D03*
X55100000Y70500000D03*
X57640000Y70500000D03*
X60180000Y70500000D03*
X62720000Y70500000D03*
X65260000Y70500000D03*
X67800000Y70500000D03*
X70340000Y70500000D03*
X72880000Y70500000D03*
X75420000Y70500000D03*
X77960000Y70500000D03*
X80500000Y70500000D03*
%TD*%
D13*
%TO.C,R14*%
X92610200Y58719200D03*
X92610200Y46019200D03*
%TD*%
D15*
%TO.C,Reset*%
X5374200Y42878400D03*
X5374200Y49378400D03*
X9874200Y42878400D03*
X9874200Y49378400D03*
%TD*%
D13*
%TO.C,C5*%
X26378000Y21676400D03*
X26378000Y24176400D03*
%TD*%
D18*
%TO.C,TEMPERATURE CONTROL*%
X99518800Y45863200D03*
D19*
X99518800Y48403200D03*
X99518800Y50943200D03*
X99518800Y53483200D03*
X99518800Y56023200D03*
X99518800Y58563200D03*
X99518800Y61103200D03*
X99518800Y63643200D03*
%TD*%
D22*
%TO.C,D1*%
X51968800Y37835700D03*
X51968800Y41835700D03*
%TD*%
D23*
%TO.C,J4*%
X15428000Y14846400D03*
X15428000Y17346400D03*
X15428000Y19346400D03*
X15428000Y21846400D03*
D24*
X11748000Y11776400D03*
X11748000Y24916400D03*
%TD*%
D25*
%TO.C,D2*%
X26308000Y18176400D03*
X26308000Y14176400D03*
%TD*%
D26*
%TO.C,U4*%
X14395400Y29010000D03*
X13125400Y29010000D03*
X11855400Y29010000D03*
X10585400Y29010000D03*
X9315400Y29010000D03*
X8045400Y29010000D03*
X6775400Y29010000D03*
X5505400Y29010000D03*
X5505400Y33960000D03*
X6775400Y33960000D03*
X8045400Y33960000D03*
X9315400Y33960000D03*
X10585400Y33960000D03*
X11855400Y33960000D03*
X13125400Y33960000D03*
X14395400Y33960000D03*
%TD*%
M02*
