M48
; DRILL file {KiCad 9.0.6} date 2026-03-23T22:10:59-0500
; FORMAT={-:-/ absolute / metric / decimal}
; #@! TF.CreationDate,2026-03-23T22:10:59-05:00
; #@! TF.GenerationSoftware,Kicad,Pcbnew,9.0.6
; #@! TF.FileFunction,Plated,1,2,PTH
FMAT,2
METRIC
; #@! TA.AperFunction,Plated,PTH,ComponentDrill
T1C0.800
; #@! TA.AperFunction,Plated,PTH,ComponentDrill
T2C1.000
; #@! TA.AperFunction,Plated,PTH,ComponentDrill
T3C1.100
; #@! TA.AperFunction,Plated,PTH,ComponentDrill
T4C1.190
; #@! TA.AperFunction,Plated,PTH,ComponentDrill
T5C1.500
; #@! TA.AperFunction,Plated,PTH,ComponentDrill
T6C2.300
; #@! TA.AperFunction,Plated,PTH,ComponentDrill
T7C2.500
%
G90
G05
T1
X9.823Y39.709
X9.823Y37.209
X14.867Y37.824
X14.929Y40.923
X17.342Y68.482
X17.342Y55.782
X17.367Y37.824
X17.429Y40.923
X21.38Y68.482
X21.38Y55.782
X22.117Y41.789
X22.117Y36.909
X23.088Y24.176
X23.088Y21.676
X25.444Y68.532
X25.444Y55.832
X26.378Y24.176
X26.378Y21.676
X26.979Y42.343
X26.979Y29.643
X31.649Y62.808
X31.649Y60.268
X31.649Y57.728
X31.649Y55.188
X31.649Y52.648
X31.649Y50.108
X31.649Y47.568
X31.649Y45.028
X31.649Y42.488
X31.649Y39.948
X31.649Y37.408
X31.649Y34.868
X31.649Y32.328
X31.649Y29.788
X31.649Y27.248
X31.649Y24.708
X31.649Y22.168
X31.649Y19.628
X31.649Y17.088
X31.649Y14.548
X32.24Y70.5
X34.78Y70.5
X37.32Y70.5
X39.86Y70.5
X42.4Y70.5
X44.94Y70.5
X46.889Y62.808
X46.889Y60.268
X46.889Y57.728
X46.889Y55.188
X46.889Y52.648
X46.889Y50.108
X46.889Y47.568
X46.889Y45.028
X46.889Y42.488
X46.889Y39.948
X46.889Y37.408
X46.889Y34.868
X46.889Y32.328
X46.889Y29.788
X46.889Y27.248
X46.889Y24.708
X46.889Y22.168
X46.889Y19.628
X46.889Y17.088
X46.889Y14.548
X47.48Y70.5
X50.02Y70.5
X52.56Y70.5
X55.1Y70.5
X57.64Y70.5
X60.18Y70.5
X62.72Y70.5
X65.26Y70.5
X67.8Y70.5
X70.34Y70.5
X72.88Y70.5
X75.42Y70.5
X77.96Y70.5
X80.5Y70.5
X92.61Y58.719
X92.61Y46.019
X97.039Y42.023
X97.039Y29.323
X102.454Y42.118
X102.454Y29.418
X107.869Y42.213
X107.869Y29.513
T2
X10.357Y65.281
X10.357Y62.741
X10.357Y60.201
X10.357Y57.661
X10.357Y55.121
X12.897Y65.281
X12.897Y62.741
X12.897Y60.201
X12.897Y57.661
X12.897Y55.121
X99.519Y63.643
X99.519Y61.103
X99.519Y58.563
X99.519Y56.023
X99.519Y53.483
X99.519Y50.943
X99.519Y48.403
X99.519Y45.863
X117.409Y31.213
X117.409Y16.713
X119.56Y12.019
X119.56Y4.419
X119.909Y31.213
X122.409Y31.213
X122.409Y16.713
T3
X5.374Y49.378
X5.374Y42.878
X9.874Y49.378
X9.874Y42.878
T4
X99.67Y18.779
X99.67Y16.239
X99.67Y13.699
X99.67Y11.159
X99.67Y8.619
T6
X11.748Y24.916
X11.748Y11.776
T7
X4.5Y70.5
X4.5Y5.5
X92.5Y70.5
X92.5Y5.5
T5
G00X114.309Y24.363
M15
G01X114.309Y23.063
M16
G05
G00X125.509Y24.363
M15
G01X125.509Y23.063
M16
G05
M30
