%TF.GenerationSoftware,KiCad,Pcbnew,9.0.6*%
%TF.CreationDate,2026-04-04T10:58:20-05:00*%
%TF.ProjectId,power-stage,706f7765-722d-4737-9461-67652e6b6963,rev?*%
%TF.SameCoordinates,PXe66860PY536afb0*%
%TF.FileFunction,Legend,Top*%
%TF.FilePolarity,Positive*%
%FSLAX46Y46*%
G04 Gerber Fmt 4.6, Leading zero omitted, Abs format (unit mm)*
G04 Created by KiCad (PCBNEW 9.0.6) date 2026-04-04 10:58:20*
%MOMM*%
%LPD*%
G01*
G04 APERTURE LIST*
%ADD10C,0.150000*%
%ADD11C,0.120000*%
G04 APERTURE END LIST*
D10*
X22632042Y29582181D02*
X22298709Y30058372D01*
X22060614Y29582181D02*
X22060614Y30582181D01*
X22060614Y30582181D02*
X22441566Y30582181D01*
X22441566Y30582181D02*
X22536804Y30534562D01*
X22536804Y30534562D02*
X22584423Y30486943D01*
X22584423Y30486943D02*
X22632042Y30391705D01*
X22632042Y30391705D02*
X22632042Y30248848D01*
X22632042Y30248848D02*
X22584423Y30153610D01*
X22584423Y30153610D02*
X22536804Y30105991D01*
X22536804Y30105991D02*
X22441566Y30058372D01*
X22441566Y30058372D02*
X22060614Y30058372D01*
X23584423Y29582181D02*
X23012995Y29582181D01*
X23298709Y29582181D02*
X23298709Y30582181D01*
X23298709Y30582181D02*
X23203471Y30439324D01*
X23203471Y30439324D02*
X23108233Y30344086D01*
X23108233Y30344086D02*
X23012995Y30296467D01*
X24203471Y30582181D02*
X24298709Y30582181D01*
X24298709Y30582181D02*
X24393947Y30534562D01*
X24393947Y30534562D02*
X24441566Y30486943D01*
X24441566Y30486943D02*
X24489185Y30391705D01*
X24489185Y30391705D02*
X24536804Y30201229D01*
X24536804Y30201229D02*
X24536804Y29963134D01*
X24536804Y29963134D02*
X24489185Y29772658D01*
X24489185Y29772658D02*
X24441566Y29677420D01*
X24441566Y29677420D02*
X24393947Y29629800D01*
X24393947Y29629800D02*
X24298709Y29582181D01*
X24298709Y29582181D02*
X24203471Y29582181D01*
X24203471Y29582181D02*
X24108233Y29629800D01*
X24108233Y29629800D02*
X24060614Y29677420D01*
X24060614Y29677420D02*
X24012995Y29772658D01*
X24012995Y29772658D02*
X23965376Y29963134D01*
X23965376Y29963134D02*
X23965376Y30201229D01*
X23965376Y30201229D02*
X24012995Y30391705D01*
X24012995Y30391705D02*
X24060614Y30486943D01*
X24060614Y30486943D02*
X24108233Y30534562D01*
X24108233Y30534562D02*
X24203471Y30582181D01*
X21703333Y36730420D02*
X21655714Y36682800D01*
X21655714Y36682800D02*
X21512857Y36635181D01*
X21512857Y36635181D02*
X21417619Y36635181D01*
X21417619Y36635181D02*
X21274762Y36682800D01*
X21274762Y36682800D02*
X21179524Y36778039D01*
X21179524Y36778039D02*
X21131905Y36873277D01*
X21131905Y36873277D02*
X21084286Y37063753D01*
X21084286Y37063753D02*
X21084286Y37206610D01*
X21084286Y37206610D02*
X21131905Y37397086D01*
X21131905Y37397086D02*
X21179524Y37492324D01*
X21179524Y37492324D02*
X21274762Y37587562D01*
X21274762Y37587562D02*
X21417619Y37635181D01*
X21417619Y37635181D02*
X21512857Y37635181D01*
X21512857Y37635181D02*
X21655714Y37587562D01*
X21655714Y37587562D02*
X21703333Y37539943D01*
X22560476Y37301848D02*
X22560476Y36635181D01*
X22322381Y37682800D02*
X22084286Y36968515D01*
X22084286Y36968515D02*
X22703333Y36968515D01*
X11551009Y58544286D02*
X11551009Y58210953D01*
X12074819Y58210953D02*
X11074819Y58210953D01*
X11074819Y58210953D02*
X11074819Y58687143D01*
X11789104Y59020477D02*
X11789104Y59496667D01*
X12074819Y58925239D02*
X11074819Y59258572D01*
X11074819Y59258572D02*
X12074819Y59591905D01*
X12074819Y59925239D02*
X11074819Y59925239D01*
X11074819Y59925239D02*
X12074819Y60496667D01*
X12074819Y60496667D02*
X11074819Y60496667D01*
X12074819Y61496667D02*
X12074819Y60925239D01*
X12074819Y61210953D02*
X11074819Y61210953D01*
X11074819Y61210953D02*
X11217676Y61115715D01*
X11217676Y61115715D02*
X11312914Y61020477D01*
X11312914Y61020477D02*
X11360533Y60925239D01*
X42813333Y24075181D02*
X42480000Y24551372D01*
X42241905Y24075181D02*
X42241905Y25075181D01*
X42241905Y25075181D02*
X42622857Y25075181D01*
X42622857Y25075181D02*
X42718095Y25027562D01*
X42718095Y25027562D02*
X42765714Y24979943D01*
X42765714Y24979943D02*
X42813333Y24884705D01*
X42813333Y24884705D02*
X42813333Y24741848D01*
X42813333Y24741848D02*
X42765714Y24646610D01*
X42765714Y24646610D02*
X42718095Y24598991D01*
X42718095Y24598991D02*
X42622857Y24551372D01*
X42622857Y24551372D02*
X42241905Y24551372D01*
X43146667Y25075181D02*
X43813333Y25075181D01*
X43813333Y25075181D02*
X43384762Y24075181D01*
X21488095Y17195181D02*
X21488095Y16385658D01*
X21488095Y16385658D02*
X21535714Y16290420D01*
X21535714Y16290420D02*
X21583333Y16242800D01*
X21583333Y16242800D02*
X21678571Y16195181D01*
X21678571Y16195181D02*
X21869047Y16195181D01*
X21869047Y16195181D02*
X21964285Y16242800D01*
X21964285Y16242800D02*
X22011904Y16290420D01*
X22011904Y16290420D02*
X22059523Y16385658D01*
X22059523Y16385658D02*
X22059523Y17195181D01*
X22440476Y17195181D02*
X23059523Y17195181D01*
X23059523Y17195181D02*
X22726190Y16814229D01*
X22726190Y16814229D02*
X22869047Y16814229D01*
X22869047Y16814229D02*
X22964285Y16766610D01*
X22964285Y16766610D02*
X23011904Y16718991D01*
X23011904Y16718991D02*
X23059523Y16623753D01*
X23059523Y16623753D02*
X23059523Y16385658D01*
X23059523Y16385658D02*
X23011904Y16290420D01*
X23011904Y16290420D02*
X22964285Y16242800D01*
X22964285Y16242800D02*
X22869047Y16195181D01*
X22869047Y16195181D02*
X22583333Y16195181D01*
X22583333Y16195181D02*
X22488095Y16242800D01*
X22488095Y16242800D02*
X22440476Y16290420D01*
X35164819Y11773334D02*
X34688628Y11440001D01*
X35164819Y11201906D02*
X34164819Y11201906D01*
X34164819Y11201906D02*
X34164819Y11582858D01*
X34164819Y11582858D02*
X34212438Y11678096D01*
X34212438Y11678096D02*
X34260057Y11725715D01*
X34260057Y11725715D02*
X34355295Y11773334D01*
X34355295Y11773334D02*
X34498152Y11773334D01*
X34498152Y11773334D02*
X34593390Y11725715D01*
X34593390Y11725715D02*
X34641009Y11678096D01*
X34641009Y11678096D02*
X34688628Y11582858D01*
X34688628Y11582858D02*
X34688628Y11201906D01*
X34164819Y12678096D02*
X34164819Y12201906D01*
X34164819Y12201906D02*
X34641009Y12154287D01*
X34641009Y12154287D02*
X34593390Y12201906D01*
X34593390Y12201906D02*
X34545771Y12297144D01*
X34545771Y12297144D02*
X34545771Y12535239D01*
X34545771Y12535239D02*
X34593390Y12630477D01*
X34593390Y12630477D02*
X34641009Y12678096D01*
X34641009Y12678096D02*
X34736247Y12725715D01*
X34736247Y12725715D02*
X34974342Y12725715D01*
X34974342Y12725715D02*
X35069580Y12678096D01*
X35069580Y12678096D02*
X35117200Y12630477D01*
X35117200Y12630477D02*
X35164819Y12535239D01*
X35164819Y12535239D02*
X35164819Y12297144D01*
X35164819Y12297144D02*
X35117200Y12201906D01*
X35117200Y12201906D02*
X35069580Y12154287D01*
X41373333Y36800420D02*
X41325714Y36752800D01*
X41325714Y36752800D02*
X41182857Y36705181D01*
X41182857Y36705181D02*
X41087619Y36705181D01*
X41087619Y36705181D02*
X40944762Y36752800D01*
X40944762Y36752800D02*
X40849524Y36848039D01*
X40849524Y36848039D02*
X40801905Y36943277D01*
X40801905Y36943277D02*
X40754286Y37133753D01*
X40754286Y37133753D02*
X40754286Y37276610D01*
X40754286Y37276610D02*
X40801905Y37467086D01*
X40801905Y37467086D02*
X40849524Y37562324D01*
X40849524Y37562324D02*
X40944762Y37657562D01*
X40944762Y37657562D02*
X41087619Y37705181D01*
X41087619Y37705181D02*
X41182857Y37705181D01*
X41182857Y37705181D02*
X41325714Y37657562D01*
X41325714Y37657562D02*
X41373333Y37609943D01*
X41706667Y37705181D02*
X42325714Y37705181D01*
X42325714Y37705181D02*
X41992381Y37324229D01*
X41992381Y37324229D02*
X42135238Y37324229D01*
X42135238Y37324229D02*
X42230476Y37276610D01*
X42230476Y37276610D02*
X42278095Y37228991D01*
X42278095Y37228991D02*
X42325714Y37133753D01*
X42325714Y37133753D02*
X42325714Y36895658D01*
X42325714Y36895658D02*
X42278095Y36800420D01*
X42278095Y36800420D02*
X42230476Y36752800D01*
X42230476Y36752800D02*
X42135238Y36705181D01*
X42135238Y36705181D02*
X41849524Y36705181D01*
X41849524Y36705181D02*
X41754286Y36752800D01*
X41754286Y36752800D02*
X41706667Y36800420D01*
X9334819Y39513334D02*
X8858628Y39180001D01*
X9334819Y38941906D02*
X8334819Y38941906D01*
X8334819Y38941906D02*
X8334819Y39322858D01*
X8334819Y39322858D02*
X8382438Y39418096D01*
X8382438Y39418096D02*
X8430057Y39465715D01*
X8430057Y39465715D02*
X8525295Y39513334D01*
X8525295Y39513334D02*
X8668152Y39513334D01*
X8668152Y39513334D02*
X8763390Y39465715D01*
X8763390Y39465715D02*
X8811009Y39418096D01*
X8811009Y39418096D02*
X8858628Y39322858D01*
X8858628Y39322858D02*
X8858628Y38941906D01*
X8334819Y39846668D02*
X8334819Y40465715D01*
X8334819Y40465715D02*
X8715771Y40132382D01*
X8715771Y40132382D02*
X8715771Y40275239D01*
X8715771Y40275239D02*
X8763390Y40370477D01*
X8763390Y40370477D02*
X8811009Y40418096D01*
X8811009Y40418096D02*
X8906247Y40465715D01*
X8906247Y40465715D02*
X9144342Y40465715D01*
X9144342Y40465715D02*
X9239580Y40418096D01*
X9239580Y40418096D02*
X9287200Y40370477D01*
X9287200Y40370477D02*
X9334819Y40275239D01*
X9334819Y40275239D02*
X9334819Y39989525D01*
X9334819Y39989525D02*
X9287200Y39894287D01*
X9287200Y39894287D02*
X9239580Y39846668D01*
X62768557Y23295762D02*
X62720938Y23200524D01*
X62720938Y23200524D02*
X62625700Y23105286D01*
X62625700Y23105286D02*
X62482842Y22962429D01*
X62482842Y22962429D02*
X62435223Y22867191D01*
X62435223Y22867191D02*
X62435223Y22771953D01*
X62673319Y22819572D02*
X62625700Y22724334D01*
X62625700Y22724334D02*
X62530461Y22629096D01*
X62530461Y22629096D02*
X62339985Y22581477D01*
X62339985Y22581477D02*
X62006652Y22581477D01*
X62006652Y22581477D02*
X61816176Y22629096D01*
X61816176Y22629096D02*
X61720938Y22724334D01*
X61720938Y22724334D02*
X61673319Y22819572D01*
X61673319Y22819572D02*
X61673319Y23010048D01*
X61673319Y23010048D02*
X61720938Y23105286D01*
X61720938Y23105286D02*
X61816176Y23200524D01*
X61816176Y23200524D02*
X62006652Y23248143D01*
X62006652Y23248143D02*
X62339985Y23248143D01*
X62339985Y23248143D02*
X62530461Y23200524D01*
X62530461Y23200524D02*
X62625700Y23105286D01*
X62625700Y23105286D02*
X62673319Y23010048D01*
X62673319Y23010048D02*
X62673319Y22819572D01*
X62673319Y24200524D02*
X62673319Y23629096D01*
X62673319Y23914810D02*
X61673319Y23914810D01*
X61673319Y23914810D02*
X61816176Y23819572D01*
X61816176Y23819572D02*
X61911414Y23724334D01*
X61911414Y23724334D02*
X61959033Y23629096D01*
X51982604Y54679572D02*
X51982604Y55155762D01*
X52268319Y54584334D02*
X51268319Y54917667D01*
X51268319Y54917667D02*
X52268319Y55251000D01*
X52173080Y56155762D02*
X52220700Y56108143D01*
X52220700Y56108143D02*
X52268319Y55965286D01*
X52268319Y55965286D02*
X52268319Y55870048D01*
X52268319Y55870048D02*
X52220700Y55727191D01*
X52220700Y55727191D02*
X52125461Y55631953D01*
X52125461Y55631953D02*
X52030223Y55584334D01*
X52030223Y55584334D02*
X51839747Y55536715D01*
X51839747Y55536715D02*
X51696890Y55536715D01*
X51696890Y55536715D02*
X51506414Y55584334D01*
X51506414Y55584334D02*
X51411176Y55631953D01*
X51411176Y55631953D02*
X51315938Y55727191D01*
X51315938Y55727191D02*
X51268319Y55870048D01*
X51268319Y55870048D02*
X51268319Y55965286D01*
X51268319Y55965286D02*
X51315938Y56108143D01*
X51315938Y56108143D02*
X51363557Y56155762D01*
X52268319Y57346239D02*
X51268319Y57346239D01*
X51268319Y57346239D02*
X51268319Y57727191D01*
X51268319Y57727191D02*
X51315938Y57822429D01*
X51315938Y57822429D02*
X51363557Y57870048D01*
X51363557Y57870048D02*
X51458795Y57917667D01*
X51458795Y57917667D02*
X51601652Y57917667D01*
X51601652Y57917667D02*
X51696890Y57870048D01*
X51696890Y57870048D02*
X51744509Y57822429D01*
X51744509Y57822429D02*
X51792128Y57727191D01*
X51792128Y57727191D02*
X51792128Y57346239D01*
X51268319Y58536715D02*
X51268319Y58727191D01*
X51268319Y58727191D02*
X51315938Y58822429D01*
X51315938Y58822429D02*
X51411176Y58917667D01*
X51411176Y58917667D02*
X51601652Y58965286D01*
X51601652Y58965286D02*
X51934985Y58965286D01*
X51934985Y58965286D02*
X52125461Y58917667D01*
X52125461Y58917667D02*
X52220700Y58822429D01*
X52220700Y58822429D02*
X52268319Y58727191D01*
X52268319Y58727191D02*
X52268319Y58536715D01*
X52268319Y58536715D02*
X52220700Y58441477D01*
X52220700Y58441477D02*
X52125461Y58346239D01*
X52125461Y58346239D02*
X51934985Y58298620D01*
X51934985Y58298620D02*
X51601652Y58298620D01*
X51601652Y58298620D02*
X51411176Y58346239D01*
X51411176Y58346239D02*
X51315938Y58441477D01*
X51315938Y58441477D02*
X51268319Y58536715D01*
X51268319Y59298620D02*
X52268319Y59536715D01*
X52268319Y59536715D02*
X51554033Y59727191D01*
X51554033Y59727191D02*
X52268319Y59917667D01*
X52268319Y59917667D02*
X51268319Y60155762D01*
X51744509Y60536715D02*
X51744509Y60870048D01*
X52268319Y61012905D02*
X52268319Y60536715D01*
X52268319Y60536715D02*
X51268319Y60536715D01*
X51268319Y60536715D02*
X51268319Y61012905D01*
X52268319Y62012905D02*
X51792128Y61679572D01*
X52268319Y61441477D02*
X51268319Y61441477D01*
X51268319Y61441477D02*
X51268319Y61822429D01*
X51268319Y61822429D02*
X51315938Y61917667D01*
X51315938Y61917667D02*
X51363557Y61965286D01*
X51363557Y61965286D02*
X51458795Y62012905D01*
X51458795Y62012905D02*
X51601652Y62012905D01*
X51601652Y62012905D02*
X51696890Y61965286D01*
X51696890Y61965286D02*
X51744509Y61917667D01*
X51744509Y61917667D02*
X51792128Y61822429D01*
X51792128Y61822429D02*
X51792128Y61441477D01*
X52649271Y63489096D02*
X52601652Y63441477D01*
X52601652Y63441477D02*
X52458795Y63346239D01*
X52458795Y63346239D02*
X52363557Y63298620D01*
X52363557Y63298620D02*
X52220700Y63251001D01*
X52220700Y63251001D02*
X51982604Y63203382D01*
X51982604Y63203382D02*
X51792128Y63203382D01*
X51792128Y63203382D02*
X51554033Y63251001D01*
X51554033Y63251001D02*
X51411176Y63298620D01*
X51411176Y63298620D02*
X51315938Y63346239D01*
X51315938Y63346239D02*
X51173080Y63441477D01*
X51173080Y63441477D02*
X51125461Y63489096D01*
X51887366Y63727192D02*
X51839747Y63774811D01*
X51839747Y63774811D02*
X51792128Y63870049D01*
X51792128Y63870049D02*
X51887366Y64060525D01*
X51887366Y64060525D02*
X51839747Y64155763D01*
X51839747Y64155763D02*
X51792128Y64203382D01*
X52649271Y64489097D02*
X52601652Y64536716D01*
X52601652Y64536716D02*
X52458795Y64631954D01*
X52458795Y64631954D02*
X52363557Y64679573D01*
X52363557Y64679573D02*
X52220700Y64727192D01*
X52220700Y64727192D02*
X51982604Y64774811D01*
X51982604Y64774811D02*
X51792128Y64774811D01*
X51792128Y64774811D02*
X51554033Y64727192D01*
X51554033Y64727192D02*
X51411176Y64679573D01*
X51411176Y64679573D02*
X51315938Y64631954D01*
X51315938Y64631954D02*
X51173080Y64536716D01*
X51173080Y64536716D02*
X51125461Y64489097D01*
X5534819Y39371906D02*
X4534819Y39371906D01*
X4534819Y39371906D02*
X4534819Y39610001D01*
X4534819Y39610001D02*
X4582438Y39752858D01*
X4582438Y39752858D02*
X4677676Y39848096D01*
X4677676Y39848096D02*
X4772914Y39895715D01*
X4772914Y39895715D02*
X4963390Y39943334D01*
X4963390Y39943334D02*
X5106247Y39943334D01*
X5106247Y39943334D02*
X5296723Y39895715D01*
X5296723Y39895715D02*
X5391961Y39848096D01*
X5391961Y39848096D02*
X5487200Y39752858D01*
X5487200Y39752858D02*
X5534819Y39610001D01*
X5534819Y39610001D02*
X5534819Y39371906D01*
X4534819Y40276668D02*
X4534819Y40895715D01*
X4534819Y40895715D02*
X4915771Y40562382D01*
X4915771Y40562382D02*
X4915771Y40705239D01*
X4915771Y40705239D02*
X4963390Y40800477D01*
X4963390Y40800477D02*
X5011009Y40848096D01*
X5011009Y40848096D02*
X5106247Y40895715D01*
X5106247Y40895715D02*
X5344342Y40895715D01*
X5344342Y40895715D02*
X5439580Y40848096D01*
X5439580Y40848096D02*
X5487200Y40800477D01*
X5487200Y40800477D02*
X5534819Y40705239D01*
X5534819Y40705239D02*
X5534819Y40419525D01*
X5534819Y40419525D02*
X5487200Y40324287D01*
X5487200Y40324287D02*
X5439580Y40276668D01*
X3492319Y34808096D02*
X2492319Y34808096D01*
X3492319Y35379524D02*
X2920890Y34950953D01*
X2492319Y35379524D02*
X3063747Y34808096D01*
X4132319Y8462382D02*
X3132319Y8462382D01*
X3132319Y8462382D02*
X3132319Y8843334D01*
X3132319Y8843334D02*
X3179938Y8938572D01*
X3179938Y8938572D02*
X3227557Y8986191D01*
X3227557Y8986191D02*
X3322795Y9033810D01*
X3322795Y9033810D02*
X3465652Y9033810D01*
X3465652Y9033810D02*
X3560890Y8986191D01*
X3560890Y8986191D02*
X3608509Y8938572D01*
X3608509Y8938572D02*
X3656128Y8843334D01*
X3656128Y8843334D02*
X3656128Y8462382D01*
X3132319Y9652858D02*
X3132319Y9843334D01*
X3132319Y9843334D02*
X3179938Y9938572D01*
X3179938Y9938572D02*
X3275176Y10033810D01*
X3275176Y10033810D02*
X3465652Y10081429D01*
X3465652Y10081429D02*
X3798985Y10081429D01*
X3798985Y10081429D02*
X3989461Y10033810D01*
X3989461Y10033810D02*
X4084700Y9938572D01*
X4084700Y9938572D02*
X4132319Y9843334D01*
X4132319Y9843334D02*
X4132319Y9652858D01*
X4132319Y9652858D02*
X4084700Y9557620D01*
X4084700Y9557620D02*
X3989461Y9462382D01*
X3989461Y9462382D02*
X3798985Y9414763D01*
X3798985Y9414763D02*
X3465652Y9414763D01*
X3465652Y9414763D02*
X3275176Y9462382D01*
X3275176Y9462382D02*
X3179938Y9557620D01*
X3179938Y9557620D02*
X3132319Y9652858D01*
X3132319Y10414763D02*
X4132319Y10652858D01*
X4132319Y10652858D02*
X3418033Y10843334D01*
X3418033Y10843334D02*
X4132319Y11033810D01*
X4132319Y11033810D02*
X3132319Y11271905D01*
X3608509Y11652858D02*
X3608509Y11986191D01*
X4132319Y12129048D02*
X4132319Y11652858D01*
X4132319Y11652858D02*
X3132319Y11652858D01*
X3132319Y11652858D02*
X3132319Y12129048D01*
X4132319Y13129048D02*
X3656128Y12795715D01*
X4132319Y12557620D02*
X3132319Y12557620D01*
X3132319Y12557620D02*
X3132319Y12938572D01*
X3132319Y12938572D02*
X3179938Y13033810D01*
X3179938Y13033810D02*
X3227557Y13081429D01*
X3227557Y13081429D02*
X3322795Y13129048D01*
X3322795Y13129048D02*
X3465652Y13129048D01*
X3465652Y13129048D02*
X3560890Y13081429D01*
X3560890Y13081429D02*
X3608509Y13033810D01*
X3608509Y13033810D02*
X3656128Y12938572D01*
X3656128Y12938572D02*
X3656128Y12557620D01*
X4037080Y14890953D02*
X4084700Y14843334D01*
X4084700Y14843334D02*
X4132319Y14700477D01*
X4132319Y14700477D02*
X4132319Y14605239D01*
X4132319Y14605239D02*
X4084700Y14462382D01*
X4084700Y14462382D02*
X3989461Y14367144D01*
X3989461Y14367144D02*
X3894223Y14319525D01*
X3894223Y14319525D02*
X3703747Y14271906D01*
X3703747Y14271906D02*
X3560890Y14271906D01*
X3560890Y14271906D02*
X3370414Y14319525D01*
X3370414Y14319525D02*
X3275176Y14367144D01*
X3275176Y14367144D02*
X3179938Y14462382D01*
X3179938Y14462382D02*
X3132319Y14605239D01*
X3132319Y14605239D02*
X3132319Y14700477D01*
X3132319Y14700477D02*
X3179938Y14843334D01*
X3179938Y14843334D02*
X3227557Y14890953D01*
X3132319Y15510001D02*
X3132319Y15700477D01*
X3132319Y15700477D02*
X3179938Y15795715D01*
X3179938Y15795715D02*
X3275176Y15890953D01*
X3275176Y15890953D02*
X3465652Y15938572D01*
X3465652Y15938572D02*
X3798985Y15938572D01*
X3798985Y15938572D02*
X3989461Y15890953D01*
X3989461Y15890953D02*
X4084700Y15795715D01*
X4084700Y15795715D02*
X4132319Y15700477D01*
X4132319Y15700477D02*
X4132319Y15510001D01*
X4132319Y15510001D02*
X4084700Y15414763D01*
X4084700Y15414763D02*
X3989461Y15319525D01*
X3989461Y15319525D02*
X3798985Y15271906D01*
X3798985Y15271906D02*
X3465652Y15271906D01*
X3465652Y15271906D02*
X3275176Y15319525D01*
X3275176Y15319525D02*
X3179938Y15414763D01*
X3179938Y15414763D02*
X3132319Y15510001D01*
X4132319Y16367144D02*
X3132319Y16367144D01*
X3132319Y16367144D02*
X4132319Y16938572D01*
X4132319Y16938572D02*
X3132319Y16938572D01*
X3132319Y17271906D02*
X3132319Y17843334D01*
X4132319Y17557620D02*
X3132319Y17557620D01*
X4132319Y18748096D02*
X3656128Y18414763D01*
X4132319Y18176668D02*
X3132319Y18176668D01*
X3132319Y18176668D02*
X3132319Y18557620D01*
X3132319Y18557620D02*
X3179938Y18652858D01*
X3179938Y18652858D02*
X3227557Y18700477D01*
X3227557Y18700477D02*
X3322795Y18748096D01*
X3322795Y18748096D02*
X3465652Y18748096D01*
X3465652Y18748096D02*
X3560890Y18700477D01*
X3560890Y18700477D02*
X3608509Y18652858D01*
X3608509Y18652858D02*
X3656128Y18557620D01*
X3656128Y18557620D02*
X3656128Y18176668D01*
X3132319Y19367144D02*
X3132319Y19557620D01*
X3132319Y19557620D02*
X3179938Y19652858D01*
X3179938Y19652858D02*
X3275176Y19748096D01*
X3275176Y19748096D02*
X3465652Y19795715D01*
X3465652Y19795715D02*
X3798985Y19795715D01*
X3798985Y19795715D02*
X3989461Y19748096D01*
X3989461Y19748096D02*
X4084700Y19652858D01*
X4084700Y19652858D02*
X4132319Y19557620D01*
X4132319Y19557620D02*
X4132319Y19367144D01*
X4132319Y19367144D02*
X4084700Y19271906D01*
X4084700Y19271906D02*
X3989461Y19176668D01*
X3989461Y19176668D02*
X3798985Y19129049D01*
X3798985Y19129049D02*
X3465652Y19129049D01*
X3465652Y19129049D02*
X3275176Y19176668D01*
X3275176Y19176668D02*
X3179938Y19271906D01*
X3179938Y19271906D02*
X3132319Y19367144D01*
X4132319Y20700477D02*
X4132319Y20224287D01*
X4132319Y20224287D02*
X3132319Y20224287D01*
X8522261Y46979943D02*
X8427023Y47027562D01*
X8427023Y47027562D02*
X8331785Y47122800D01*
X8331785Y47122800D02*
X8188928Y47265658D01*
X8188928Y47265658D02*
X8093690Y47313277D01*
X8093690Y47313277D02*
X7998452Y47313277D01*
X8046071Y47075181D02*
X7950833Y47122800D01*
X7950833Y47122800D02*
X7855595Y47218039D01*
X7855595Y47218039D02*
X7807976Y47408515D01*
X7807976Y47408515D02*
X7807976Y47741848D01*
X7807976Y47741848D02*
X7855595Y47932324D01*
X7855595Y47932324D02*
X7950833Y48027562D01*
X7950833Y48027562D02*
X8046071Y48075181D01*
X8046071Y48075181D02*
X8236547Y48075181D01*
X8236547Y48075181D02*
X8331785Y48027562D01*
X8331785Y48027562D02*
X8427023Y47932324D01*
X8427023Y47932324D02*
X8474642Y47741848D01*
X8474642Y47741848D02*
X8474642Y47408515D01*
X8474642Y47408515D02*
X8427023Y47218039D01*
X8427023Y47218039D02*
X8331785Y47122800D01*
X8331785Y47122800D02*
X8236547Y47075181D01*
X8236547Y47075181D02*
X8046071Y47075181D01*
X8807976Y48075181D02*
X9427023Y48075181D01*
X9427023Y48075181D02*
X9093690Y47694229D01*
X9093690Y47694229D02*
X9236547Y47694229D01*
X9236547Y47694229D02*
X9331785Y47646610D01*
X9331785Y47646610D02*
X9379404Y47598991D01*
X9379404Y47598991D02*
X9427023Y47503753D01*
X9427023Y47503753D02*
X9427023Y47265658D01*
X9427023Y47265658D02*
X9379404Y47170420D01*
X9379404Y47170420D02*
X9331785Y47122800D01*
X9331785Y47122800D02*
X9236547Y47075181D01*
X9236547Y47075181D02*
X8950833Y47075181D01*
X8950833Y47075181D02*
X8855595Y47122800D01*
X8855595Y47122800D02*
X8807976Y47170420D01*
X62768557Y11235762D02*
X62720938Y11140524D01*
X62720938Y11140524D02*
X62625700Y11045286D01*
X62625700Y11045286D02*
X62482842Y10902429D01*
X62482842Y10902429D02*
X62435223Y10807191D01*
X62435223Y10807191D02*
X62435223Y10711953D01*
X62673319Y10759572D02*
X62625700Y10664334D01*
X62625700Y10664334D02*
X62530461Y10569096D01*
X62530461Y10569096D02*
X62339985Y10521477D01*
X62339985Y10521477D02*
X62006652Y10521477D01*
X62006652Y10521477D02*
X61816176Y10569096D01*
X61816176Y10569096D02*
X61720938Y10664334D01*
X61720938Y10664334D02*
X61673319Y10759572D01*
X61673319Y10759572D02*
X61673319Y10950048D01*
X61673319Y10950048D02*
X61720938Y11045286D01*
X61720938Y11045286D02*
X61816176Y11140524D01*
X61816176Y11140524D02*
X62006652Y11188143D01*
X62006652Y11188143D02*
X62339985Y11188143D01*
X62339985Y11188143D02*
X62530461Y11140524D01*
X62530461Y11140524D02*
X62625700Y11045286D01*
X62625700Y11045286D02*
X62673319Y10950048D01*
X62673319Y10950048D02*
X62673319Y10759572D01*
X61768557Y11569096D02*
X61720938Y11616715D01*
X61720938Y11616715D02*
X61673319Y11711953D01*
X61673319Y11711953D02*
X61673319Y11950048D01*
X61673319Y11950048D02*
X61720938Y12045286D01*
X61720938Y12045286D02*
X61768557Y12092905D01*
X61768557Y12092905D02*
X61863795Y12140524D01*
X61863795Y12140524D02*
X61959033Y12140524D01*
X61959033Y12140524D02*
X62101890Y12092905D01*
X62101890Y12092905D02*
X62673319Y11521477D01*
X62673319Y11521477D02*
X62673319Y12140524D01*
X52268319Y46521953D02*
X51268319Y46521953D01*
X51268319Y46521953D02*
X51268319Y46902905D01*
X51268319Y46902905D02*
X51315938Y46998143D01*
X51315938Y46998143D02*
X51363557Y47045762D01*
X51363557Y47045762D02*
X51458795Y47093381D01*
X51458795Y47093381D02*
X51601652Y47093381D01*
X51601652Y47093381D02*
X51696890Y47045762D01*
X51696890Y47045762D02*
X51744509Y46998143D01*
X51744509Y46998143D02*
X51792128Y46902905D01*
X51792128Y46902905D02*
X51792128Y46521953D01*
X51268319Y47379096D02*
X51268319Y47950524D01*
X52268319Y47664810D02*
X51268319Y47664810D01*
X52173080Y48855286D02*
X52220700Y48807667D01*
X52220700Y48807667D02*
X52268319Y48664810D01*
X52268319Y48664810D02*
X52268319Y48569572D01*
X52268319Y48569572D02*
X52220700Y48426715D01*
X52220700Y48426715D02*
X52125461Y48331477D01*
X52125461Y48331477D02*
X52030223Y48283858D01*
X52030223Y48283858D02*
X51839747Y48236239D01*
X51839747Y48236239D02*
X51696890Y48236239D01*
X51696890Y48236239D02*
X51506414Y48283858D01*
X51506414Y48283858D02*
X51411176Y48331477D01*
X51411176Y48331477D02*
X51315938Y48426715D01*
X51315938Y48426715D02*
X51268319Y48569572D01*
X51268319Y48569572D02*
X51268319Y48664810D01*
X51268319Y48664810D02*
X51315938Y48807667D01*
X51315938Y48807667D02*
X51363557Y48855286D01*
X51363557Y49236239D02*
X51315938Y49283858D01*
X51315938Y49283858D02*
X51268319Y49379096D01*
X51268319Y49379096D02*
X51268319Y49617191D01*
X51268319Y49617191D02*
X51315938Y49712429D01*
X51315938Y49712429D02*
X51363557Y49760048D01*
X51363557Y49760048D02*
X51458795Y49807667D01*
X51458795Y49807667D02*
X51554033Y49807667D01*
X51554033Y49807667D02*
X51696890Y49760048D01*
X51696890Y49760048D02*
X52268319Y49188620D01*
X52268319Y49188620D02*
X52268319Y49807667D01*
X42736833Y29605181D02*
X42403500Y30081372D01*
X42165405Y29605181D02*
X42165405Y30605181D01*
X42165405Y30605181D02*
X42546357Y30605181D01*
X42546357Y30605181D02*
X42641595Y30557562D01*
X42641595Y30557562D02*
X42689214Y30509943D01*
X42689214Y30509943D02*
X42736833Y30414705D01*
X42736833Y30414705D02*
X42736833Y30271848D01*
X42736833Y30271848D02*
X42689214Y30176610D01*
X42689214Y30176610D02*
X42641595Y30128991D01*
X42641595Y30128991D02*
X42546357Y30081372D01*
X42546357Y30081372D02*
X42165405Y30081372D01*
X43213024Y29605181D02*
X43403500Y29605181D01*
X43403500Y29605181D02*
X43498738Y29652800D01*
X43498738Y29652800D02*
X43546357Y29700420D01*
X43546357Y29700420D02*
X43641595Y29843277D01*
X43641595Y29843277D02*
X43689214Y30033753D01*
X43689214Y30033753D02*
X43689214Y30414705D01*
X43689214Y30414705D02*
X43641595Y30509943D01*
X43641595Y30509943D02*
X43593976Y30557562D01*
X43593976Y30557562D02*
X43498738Y30605181D01*
X43498738Y30605181D02*
X43308262Y30605181D01*
X43308262Y30605181D02*
X43213024Y30557562D01*
X43213024Y30557562D02*
X43165405Y30509943D01*
X43165405Y30509943D02*
X43117786Y30414705D01*
X43117786Y30414705D02*
X43117786Y30176610D01*
X43117786Y30176610D02*
X43165405Y30081372D01*
X43165405Y30081372D02*
X43213024Y30033753D01*
X43213024Y30033753D02*
X43308262Y29986134D01*
X43308262Y29986134D02*
X43498738Y29986134D01*
X43498738Y29986134D02*
X43593976Y30033753D01*
X43593976Y30033753D02*
X43641595Y30081372D01*
X43641595Y30081372D02*
X43689214Y30176610D01*
X30309214Y41286181D02*
X30309214Y42286181D01*
X30309214Y42286181D02*
X30690166Y42286181D01*
X30690166Y42286181D02*
X30785404Y42238562D01*
X30785404Y42238562D02*
X30833023Y42190943D01*
X30833023Y42190943D02*
X30880642Y42095705D01*
X30880642Y42095705D02*
X30880642Y41952848D01*
X30880642Y41952848D02*
X30833023Y41857610D01*
X30833023Y41857610D02*
X30785404Y41809991D01*
X30785404Y41809991D02*
X30690166Y41762372D01*
X30690166Y41762372D02*
X30309214Y41762372D01*
X31261595Y41333800D02*
X31404452Y41286181D01*
X31404452Y41286181D02*
X31642547Y41286181D01*
X31642547Y41286181D02*
X31737785Y41333800D01*
X31737785Y41333800D02*
X31785404Y41381420D01*
X31785404Y41381420D02*
X31833023Y41476658D01*
X31833023Y41476658D02*
X31833023Y41571896D01*
X31833023Y41571896D02*
X31785404Y41667134D01*
X31785404Y41667134D02*
X31737785Y41714753D01*
X31737785Y41714753D02*
X31642547Y41762372D01*
X31642547Y41762372D02*
X31452071Y41809991D01*
X31452071Y41809991D02*
X31356833Y41857610D01*
X31356833Y41857610D02*
X31309214Y41905229D01*
X31309214Y41905229D02*
X31261595Y42000467D01*
X31261595Y42000467D02*
X31261595Y42095705D01*
X31261595Y42095705D02*
X31309214Y42190943D01*
X31309214Y42190943D02*
X31356833Y42238562D01*
X31356833Y42238562D02*
X31452071Y42286181D01*
X31452071Y42286181D02*
X31690166Y42286181D01*
X31690166Y42286181D02*
X31833023Y42238562D01*
X32785404Y41286181D02*
X32213976Y41286181D01*
X32499690Y41286181D02*
X32499690Y42286181D01*
X32499690Y42286181D02*
X32404452Y42143324D01*
X32404452Y42143324D02*
X32309214Y42048086D01*
X32309214Y42048086D02*
X32213976Y42000467D01*
X30624819Y11843334D02*
X30148628Y11510001D01*
X30624819Y11271906D02*
X29624819Y11271906D01*
X29624819Y11271906D02*
X29624819Y11652858D01*
X29624819Y11652858D02*
X29672438Y11748096D01*
X29672438Y11748096D02*
X29720057Y11795715D01*
X29720057Y11795715D02*
X29815295Y11843334D01*
X29815295Y11843334D02*
X29958152Y11843334D01*
X29958152Y11843334D02*
X30053390Y11795715D01*
X30053390Y11795715D02*
X30101009Y11748096D01*
X30101009Y11748096D02*
X30148628Y11652858D01*
X30148628Y11652858D02*
X30148628Y11271906D01*
X29624819Y12700477D02*
X29624819Y12510001D01*
X29624819Y12510001D02*
X29672438Y12414763D01*
X29672438Y12414763D02*
X29720057Y12367144D01*
X29720057Y12367144D02*
X29862914Y12271906D01*
X29862914Y12271906D02*
X30053390Y12224287D01*
X30053390Y12224287D02*
X30434342Y12224287D01*
X30434342Y12224287D02*
X30529580Y12271906D01*
X30529580Y12271906D02*
X30577200Y12319525D01*
X30577200Y12319525D02*
X30624819Y12414763D01*
X30624819Y12414763D02*
X30624819Y12605239D01*
X30624819Y12605239D02*
X30577200Y12700477D01*
X30577200Y12700477D02*
X30529580Y12748096D01*
X30529580Y12748096D02*
X30434342Y12795715D01*
X30434342Y12795715D02*
X30196247Y12795715D01*
X30196247Y12795715D02*
X30101009Y12748096D01*
X30101009Y12748096D02*
X30053390Y12700477D01*
X30053390Y12700477D02*
X30005771Y12605239D01*
X30005771Y12605239D02*
X30005771Y12414763D01*
X30005771Y12414763D02*
X30053390Y12319525D01*
X30053390Y12319525D02*
X30101009Y12271906D01*
X30101009Y12271906D02*
X30196247Y12224287D01*
X22908233Y23642181D02*
X22574900Y24118372D01*
X22336805Y23642181D02*
X22336805Y24642181D01*
X22336805Y24642181D02*
X22717757Y24642181D01*
X22717757Y24642181D02*
X22812995Y24594562D01*
X22812995Y24594562D02*
X22860614Y24546943D01*
X22860614Y24546943D02*
X22908233Y24451705D01*
X22908233Y24451705D02*
X22908233Y24308848D01*
X22908233Y24308848D02*
X22860614Y24213610D01*
X22860614Y24213610D02*
X22812995Y24165991D01*
X22812995Y24165991D02*
X22717757Y24118372D01*
X22717757Y24118372D02*
X22336805Y24118372D01*
X23479662Y24213610D02*
X23384424Y24261229D01*
X23384424Y24261229D02*
X23336805Y24308848D01*
X23336805Y24308848D02*
X23289186Y24404086D01*
X23289186Y24404086D02*
X23289186Y24451705D01*
X23289186Y24451705D02*
X23336805Y24546943D01*
X23336805Y24546943D02*
X23384424Y24594562D01*
X23384424Y24594562D02*
X23479662Y24642181D01*
X23479662Y24642181D02*
X23670138Y24642181D01*
X23670138Y24642181D02*
X23765376Y24594562D01*
X23765376Y24594562D02*
X23812995Y24546943D01*
X23812995Y24546943D02*
X23860614Y24451705D01*
X23860614Y24451705D02*
X23860614Y24404086D01*
X23860614Y24404086D02*
X23812995Y24308848D01*
X23812995Y24308848D02*
X23765376Y24261229D01*
X23765376Y24261229D02*
X23670138Y24213610D01*
X23670138Y24213610D02*
X23479662Y24213610D01*
X23479662Y24213610D02*
X23384424Y24165991D01*
X23384424Y24165991D02*
X23336805Y24118372D01*
X23336805Y24118372D02*
X23289186Y24023134D01*
X23289186Y24023134D02*
X23289186Y23832658D01*
X23289186Y23832658D02*
X23336805Y23737420D01*
X23336805Y23737420D02*
X23384424Y23689800D01*
X23384424Y23689800D02*
X23479662Y23642181D01*
X23479662Y23642181D02*
X23670138Y23642181D01*
X23670138Y23642181D02*
X23765376Y23689800D01*
X23765376Y23689800D02*
X23812995Y23737420D01*
X23812995Y23737420D02*
X23860614Y23832658D01*
X23860614Y23832658D02*
X23860614Y24023134D01*
X23860614Y24023134D02*
X23812995Y24118372D01*
X23812995Y24118372D02*
X23765376Y24165991D01*
X23765376Y24165991D02*
X23670138Y24213610D01*
X52308319Y34881953D02*
X51308319Y34881953D01*
X51308319Y34881953D02*
X51308319Y35262905D01*
X51308319Y35262905D02*
X51355938Y35358143D01*
X51355938Y35358143D02*
X51403557Y35405762D01*
X51403557Y35405762D02*
X51498795Y35453381D01*
X51498795Y35453381D02*
X51641652Y35453381D01*
X51641652Y35453381D02*
X51736890Y35405762D01*
X51736890Y35405762D02*
X51784509Y35358143D01*
X51784509Y35358143D02*
X51832128Y35262905D01*
X51832128Y35262905D02*
X51832128Y34881953D01*
X51308319Y35739096D02*
X51308319Y36310524D01*
X52308319Y36024810D02*
X51308319Y36024810D01*
X52213080Y37215286D02*
X52260700Y37167667D01*
X52260700Y37167667D02*
X52308319Y37024810D01*
X52308319Y37024810D02*
X52308319Y36929572D01*
X52308319Y36929572D02*
X52260700Y36786715D01*
X52260700Y36786715D02*
X52165461Y36691477D01*
X52165461Y36691477D02*
X52070223Y36643858D01*
X52070223Y36643858D02*
X51879747Y36596239D01*
X51879747Y36596239D02*
X51736890Y36596239D01*
X51736890Y36596239D02*
X51546414Y36643858D01*
X51546414Y36643858D02*
X51451176Y36691477D01*
X51451176Y36691477D02*
X51355938Y36786715D01*
X51355938Y36786715D02*
X51308319Y36929572D01*
X51308319Y36929572D02*
X51308319Y37024810D01*
X51308319Y37024810D02*
X51355938Y37167667D01*
X51355938Y37167667D02*
X51403557Y37215286D01*
X52308319Y38167667D02*
X52308319Y37596239D01*
X52308319Y37881953D02*
X51308319Y37881953D01*
X51308319Y37881953D02*
X51451176Y37786715D01*
X51451176Y37786715D02*
X51546414Y37691477D01*
X51546414Y37691477D02*
X51594033Y37596239D01*
X37818095Y16575181D02*
X37818095Y15765658D01*
X37818095Y15765658D02*
X37865714Y15670420D01*
X37865714Y15670420D02*
X37913333Y15622800D01*
X37913333Y15622800D02*
X38008571Y15575181D01*
X38008571Y15575181D02*
X38199047Y15575181D01*
X38199047Y15575181D02*
X38294285Y15622800D01*
X38294285Y15622800D02*
X38341904Y15670420D01*
X38341904Y15670420D02*
X38389523Y15765658D01*
X38389523Y15765658D02*
X38389523Y16575181D01*
X38818095Y16479943D02*
X38865714Y16527562D01*
X38865714Y16527562D02*
X38960952Y16575181D01*
X38960952Y16575181D02*
X39199047Y16575181D01*
X39199047Y16575181D02*
X39294285Y16527562D01*
X39294285Y16527562D02*
X39341904Y16479943D01*
X39341904Y16479943D02*
X39389523Y16384705D01*
X39389523Y16384705D02*
X39389523Y16289467D01*
X39389523Y16289467D02*
X39341904Y16146610D01*
X39341904Y16146610D02*
X38770476Y15575181D01*
X38770476Y15575181D02*
X39389523Y15575181D01*
D11*
%TO.C,R10*%
X14813500Y30171000D02*
X14923500Y30171000D01*
X27173500Y30171000D02*
X27063500Y30171000D01*
X27063500Y27801000D02*
X14923500Y27801000D01*
X14923500Y32541000D01*
X27063500Y32541000D01*
X27063500Y27801000D01*
%TO.C,C4*%
X16568500Y39751000D02*
X27108500Y39751000D01*
X16568500Y34511000D02*
X16568500Y39751000D01*
X27108500Y39751000D02*
X27108500Y34511000D01*
X27108500Y34511000D02*
X16568500Y34511000D01*
%TO.C,FAN1*%
X2580000Y65200000D02*
X10620000Y65200000D01*
X2580000Y62380000D02*
X2580000Y65200000D01*
X2580000Y54460000D02*
X2580000Y61780000D01*
X4700000Y65200000D02*
X4700000Y63960000D01*
X4700000Y60200000D02*
X4700000Y57623000D01*
X4700000Y56537000D02*
X4700000Y54460000D01*
X6000000Y65200000D02*
X6000000Y63960000D01*
X6000000Y60200000D02*
X6000000Y58892000D01*
X6000000Y55268000D02*
X6000000Y54460000D01*
X7000000Y65200000D02*
X7000000Y63960000D01*
X7000000Y60200000D02*
X7000000Y58892000D01*
X7000000Y55268000D02*
X7000000Y54460000D01*
X10620000Y65200000D02*
X10620000Y54460000D01*
X10620000Y54460000D02*
X2580000Y54460000D01*
X2580000Y62080000D02*
X1970000Y61640000D01*
X1970000Y62520000D01*
X2580000Y62080000D01*
G36*
X2580000Y62080000D02*
G01*
X1970000Y61640000D01*
X1970000Y62520000D01*
X2580000Y62080000D01*
G37*
%TO.C,R7*%
X36723500Y24351000D02*
X36833500Y24351000D01*
X49083500Y24351000D02*
X48973500Y24351000D01*
X48973500Y21981000D02*
X36833500Y21981000D01*
X36833500Y26721000D01*
X48973500Y26721000D01*
X48973500Y21981000D01*
%TO.C,U3*%
X19553500Y15661000D02*
X19553500Y7921000D01*
X19553500Y7921000D02*
X21203500Y7921000D01*
X23203500Y7921000D02*
X24853500Y7921000D01*
X24853500Y15661000D02*
X19553500Y15661000D01*
X24853500Y7921000D02*
X24853500Y15661000D01*
X21203500Y7921000D02*
G75*
G02*
X23203500Y7921000I1000000J0D01*
G01*
%TO.C,R5*%
X34750167Y17101000D02*
X34750167Y16411000D01*
X34750167Y6481000D02*
X34750167Y7171000D01*
X33030167Y7171000D02*
X36470167Y7171000D01*
X36470167Y16411000D01*
X33030167Y16411000D01*
X33030167Y7171000D01*
%TO.C,C3*%
X36308500Y39641000D02*
X46848500Y39641000D01*
X36308500Y34401000D02*
X36308500Y39641000D01*
X46848500Y39641000D02*
X46848500Y34401000D01*
X46848500Y34401000D02*
X36308500Y34401000D01*
%TO.C,R3*%
X8727500Y44510000D02*
X8727500Y43820000D01*
X8727500Y33890000D02*
X8727500Y34580000D01*
X7007500Y34580000D02*
X10447500Y34580000D01*
X10447500Y43820000D01*
X7007500Y43820000D01*
X7007500Y34580000D01*
%TO.C,Q1*%
X56758500Y28501000D02*
X61378500Y28501000D01*
X56758500Y18281000D02*
X56758500Y28501000D01*
X59998500Y28501000D02*
X59998500Y18281000D01*
X61378500Y28501000D02*
X61378500Y18281000D01*
X61378500Y25241000D02*
X59998500Y25241000D01*
X61378500Y21541000D02*
X59998500Y21541000D01*
X61378500Y18281000D02*
X56758500Y18281000D01*
%TO.C,AC POWER (~)*%
X52813500Y65121000D02*
X60853500Y65121000D01*
X52813500Y54381000D02*
X52813500Y65121000D01*
X56433500Y64313000D02*
X56433500Y65121000D01*
X56433500Y59381000D02*
X56433500Y60689000D01*
X56433500Y54381000D02*
X56433500Y55621000D01*
X57433500Y64313000D02*
X57433500Y65121000D01*
X57433500Y59381000D02*
X57433500Y60689000D01*
X57433500Y54381000D02*
X57433500Y55621000D01*
X58733500Y63044000D02*
X58733500Y65121000D01*
X58733500Y59381000D02*
X58733500Y61958000D01*
X58733500Y54381000D02*
X58733500Y55621000D01*
X60853500Y65121000D02*
X60853500Y57801000D01*
X60853500Y57201000D02*
X60853500Y54381000D01*
X60853500Y54381000D02*
X52813500Y54381000D01*
X61463500Y57061000D02*
X60853500Y57501000D01*
X61463500Y57941000D01*
X61463500Y57061000D01*
G36*
X61463500Y57061000D02*
G01*
X60853500Y57501000D01*
X61463500Y57941000D01*
X61463500Y57061000D01*
G37*
%TO.C,D3*%
X3667500Y38450000D02*
X6607500Y38450000D01*
X3667500Y38330000D02*
X6607500Y38330000D01*
X3667500Y38210000D02*
X6607500Y38210000D01*
X5137500Y43890000D02*
X5137500Y42870000D01*
X5137500Y36410000D02*
X5137500Y37430000D01*
X3667500Y37430000D02*
X6607500Y37430000D01*
X6607500Y42870000D01*
X3667500Y42870000D01*
X3667500Y37430000D01*
%TO.C,POWER CONTROL*%
X4767500Y20970000D02*
X4767500Y8050000D01*
X4767500Y18790000D02*
X5367500Y18790000D01*
X4767500Y16250000D02*
X5367500Y16250000D01*
X4767500Y13710000D02*
X5367500Y13710000D01*
X4767500Y11170000D02*
X5367500Y11170000D01*
X4767500Y8630000D02*
X5367500Y8630000D01*
X4767500Y8050000D02*
X10787500Y8050000D01*
X5367500Y20390000D02*
X4767500Y20390000D01*
X5367500Y18790000D02*
X5367500Y20390000D01*
X5367500Y17850000D02*
X4767500Y17850000D01*
X5367500Y16250000D02*
X5367500Y17850000D01*
X5367500Y15310000D02*
X4767500Y15310000D01*
X5367500Y13710000D02*
X5367500Y15310000D01*
X5367500Y12770000D02*
X4767500Y12770000D01*
X5367500Y11170000D02*
X5367500Y12770000D01*
X5367500Y10230000D02*
X4767500Y10230000D01*
X5367500Y8630000D02*
X5367500Y10230000D01*
X5797500Y7760000D02*
X9797500Y7760000D01*
X9257500Y19340000D02*
X9787500Y19590000D01*
X9257500Y9680000D02*
X9257500Y19340000D01*
X9787500Y19590000D02*
X10787500Y19590000D01*
X9787500Y9430000D02*
X9257500Y9680000D01*
X9787500Y9430000D02*
X9787500Y19590000D01*
X10787500Y20970000D02*
X4767500Y20970000D01*
X10787500Y19340000D02*
X9787500Y19340000D01*
X10787500Y9680000D02*
X9787500Y9680000D01*
X10787500Y9430000D02*
X9787500Y9430000D01*
X10787500Y8050000D02*
X10787500Y20970000D01*
%TO.C,Q3*%
X10417500Y52940000D02*
X6817500Y52940000D01*
X8617500Y48490000D02*
G75*
G02*
X6779022Y52928478I0J2600000D01*
G01*
X10455978Y52928478D02*
G75*
G02*
X8617500Y48489999I-1838478J-1838478D01*
G01*
%TO.C,Q2*%
X56758500Y16441000D02*
X61378500Y16441000D01*
X56758500Y6221000D02*
X56758500Y16441000D01*
X59998500Y16441000D02*
X59998500Y6221000D01*
X61378500Y16441000D02*
X61378500Y6221000D01*
X61378500Y13181000D02*
X59998500Y13181000D01*
X61378500Y9481000D02*
X59998500Y9481000D01*
X61378500Y6221000D02*
X56758500Y6221000D01*
%TO.C,PTC2*%
X52813500Y53511000D02*
X60853500Y53511000D01*
X52813500Y42771000D02*
X52813500Y53511000D01*
X56433500Y52703000D02*
X56433500Y53511000D01*
X56433500Y47771000D02*
X56433500Y49079000D01*
X56433500Y42771000D02*
X56433500Y44011000D01*
X57433500Y52703000D02*
X57433500Y53511000D01*
X57433500Y47771000D02*
X57433500Y49079000D01*
X57433500Y42771000D02*
X57433500Y44011000D01*
X58733500Y51434000D02*
X58733500Y53511000D01*
X58733500Y47771000D02*
X58733500Y50348000D01*
X58733500Y42771000D02*
X58733500Y44011000D01*
X60853500Y53511000D02*
X60853500Y46191000D01*
X60853500Y45591000D02*
X60853500Y42771000D01*
X60853500Y42771000D02*
X52813500Y42771000D01*
X61463500Y45451000D02*
X60853500Y45891000D01*
X61463500Y46331000D01*
X61463500Y45451000D01*
G36*
X61463500Y45451000D02*
G01*
X60853500Y45891000D01*
X61463500Y46331000D01*
X61463500Y45451000D01*
G37*
%TO.C,R9*%
X36723500Y30161000D02*
X36833500Y30161000D01*
X49083500Y30161000D02*
X48973500Y30161000D01*
X36833500Y32531000D02*
X48973500Y32531000D01*
X48973500Y27791000D01*
X36833500Y27791000D01*
X36833500Y32531000D01*
%TO.C,PS1*%
X13013500Y65301000D02*
X50033500Y65301000D01*
X13013500Y42581000D02*
X13013500Y65301000D01*
X50033500Y65301000D02*
X50033500Y51737000D01*
X50033500Y51145000D02*
X50033500Y42581000D01*
X50033500Y42581000D02*
X13013500Y42581000D01*
X50643500Y51001000D02*
X50033500Y51441000D01*
X50643500Y51881000D01*
X50643500Y51001000D01*
G36*
X50643500Y51001000D02*
G01*
X50033500Y51441000D01*
X50643500Y51881000D01*
X50643500Y51001000D01*
G37*
%TO.C,R6*%
X29986833Y17101000D02*
X29986833Y16411000D01*
X29986833Y6481000D02*
X29986833Y7171000D01*
X28266833Y7171000D02*
X31706833Y7171000D01*
X31706833Y16411000D01*
X28266833Y16411000D01*
X28266833Y7171000D01*
%TO.C,R8*%
X14813500Y24221000D02*
X14923500Y24221000D01*
X27173500Y24221000D02*
X27063500Y24221000D01*
X27063500Y21851000D02*
X14923500Y21851000D01*
X14923500Y26591000D01*
X27063500Y26591000D01*
X27063500Y21851000D01*
%TO.C,PTC1*%
X52853500Y41871000D02*
X60893500Y41871000D01*
X52853500Y31131000D02*
X52853500Y41871000D01*
X56473500Y41063000D02*
X56473500Y41871000D01*
X56473500Y36131000D02*
X56473500Y37439000D01*
X56473500Y31131000D02*
X56473500Y32371000D01*
X57473500Y41063000D02*
X57473500Y41871000D01*
X57473500Y36131000D02*
X57473500Y37439000D01*
X57473500Y31131000D02*
X57473500Y32371000D01*
X58773500Y39794000D02*
X58773500Y41871000D01*
X58773500Y36131000D02*
X58773500Y38708000D01*
X58773500Y31131000D02*
X58773500Y32371000D01*
X60893500Y41871000D02*
X60893500Y34551000D01*
X60893500Y33951000D02*
X60893500Y31131000D01*
X60893500Y31131000D02*
X52853500Y31131000D01*
X61503500Y33811000D02*
X60893500Y34251000D01*
X61503500Y34691000D01*
X61503500Y33811000D01*
G36*
X61503500Y33811000D02*
G01*
X60893500Y34251000D01*
X61503500Y34691000D01*
X61503500Y33811000D01*
G37*
%TO.C,U2*%
X39883500Y15661000D02*
X39883500Y7921000D01*
X39883500Y7921000D02*
X45183500Y7921000D01*
X41533500Y15661000D02*
X39883500Y15661000D01*
X45183500Y15661000D02*
X43533500Y15661000D01*
X45183500Y7921000D02*
X45183500Y15661000D01*
X43533500Y15661000D02*
G75*
G02*
X41533500Y15661000I-1000000J0D01*
G01*
%TD*%
M02*
