%TF.GenerationSoftware,KiCad,Pcbnew,9.0.6*%
%TF.CreationDate,2026-04-04T10:58:20-05:00*%
%TF.ProjectId,power-stage,706f7765-722d-4737-9461-67652e6b6963,rev?*%
%TF.SameCoordinates,PXe66860PY536afb0*%
%TF.FileFunction,Soldermask,Bot*%
%TF.FilePolarity,Negative*%
%FSLAX46Y46*%
G04 Gerber Fmt 4.6, Leading zero omitted, Abs format (unit mm)*
G04 Created by KiCad (PCBNEW 9.0.6) date 2026-04-04 10:58:20*
%MOMM*%
%LPD*%
G01*
G04 APERTURE LIST*
G04 Aperture macros list*
%AMRoundRect*
0 Rectangle with rounded corners*
0 $1 Rounding radius*
0 $2 $3 $4 $5 $6 $7 $8 $9 X,Y pos of 4 corners*
0 Add a 4 corners polygon primitive as box body*
4,1,4,$2,$3,$4,$5,$6,$7,$8,$9,$2,$3,0*
0 Add four circle primitives for the rounded corners*
1,1,$1+$1,$2,$3*
1,1,$1+$1,$4,$5*
1,1,$1+$1,$6,$7*
1,1,$1+$1,$8,$9*
0 Add four rect primitives between the rounded corners*
20,1,$1+$1,$2,$3,$4,$5,0*
20,1,$1+$1,$4,$5,$6,$7,0*
20,1,$1+$1,$6,$7,$8,$9,0*
20,1,$1+$1,$8,$9,$2,$3,0*%
G04 Aperture macros list end*
%ADD10C,2.400000*%
%ADD11C,2.000000*%
%ADD12RoundRect,0.250001X-1.149999X1.149999X-1.149999X-1.149999X1.149999X-1.149999X1.149999X1.149999X0*%
%ADD13C,2.800000*%
%ADD14RoundRect,0.250000X0.550000X0.550000X-0.550000X0.550000X-0.550000X-0.550000X0.550000X-0.550000X0*%
%ADD15C,1.600000*%
%ADD16R,2.000000X1.905000*%
%ADD17O,2.000000X1.905000*%
%ADD18RoundRect,0.250001X1.149999X-1.149999X1.149999X1.149999X-1.149999X1.149999X-1.149999X-1.149999X0*%
%ADD19RoundRect,0.249999X0.850001X-0.850001X0.850001X0.850001X-0.850001X0.850001X-0.850001X-0.850001X0*%
%ADD20C,2.200000*%
%ADD21RoundRect,0.250000X0.845000X-0.620000X0.845000X0.620000X-0.845000X0.620000X-0.845000X-0.620000X0*%
%ADD22O,2.190000X1.740000*%
%ADD23R,1.050000X1.500000*%
%ADD24O,1.050000X1.500000*%
%ADD25RoundRect,0.250000X0.600000X0.750000X-0.600000X0.750000X-0.600000X-0.750000X0.600000X-0.750000X0*%
%ADD26O,1.700000X2.000000*%
%ADD27RoundRect,0.250000X-0.550000X-0.550000X0.550000X-0.550000X0.550000X0.550000X-0.550000X0.550000X0*%
G04 APERTURE END LIST*
D10*
%TO.C,R10*%
X28613500Y30171000D03*
X13373500Y30171000D03*
%TD*%
D11*
%TO.C,C4*%
X18088500Y37131000D03*
X25588500Y37131000D03*
%TD*%
D12*
%TO.C,FAN1*%
X6500000Y62080000D03*
D13*
X6500000Y57080000D03*
%TD*%
D10*
%TO.C,R7*%
X50523500Y24351000D03*
X35283500Y24351000D03*
%TD*%
D14*
%TO.C,U3*%
X26013500Y9251000D03*
D15*
X26013500Y11791000D03*
X26013500Y14331000D03*
X18393500Y14331000D03*
X18393500Y11791000D03*
X18393500Y9251000D03*
%TD*%
%TO.C,R5*%
X34750167Y5441000D03*
X34750167Y18141000D03*
%TD*%
D11*
%TO.C,C3*%
X45328500Y37021000D03*
X37828500Y37021000D03*
%TD*%
D15*
%TO.C,R3*%
X8727500Y32850000D03*
X8727500Y45550000D03*
%TD*%
D16*
%TO.C,Q1*%
X58118500Y25931000D03*
D17*
X58118500Y23391000D03*
X58118500Y20851000D03*
%TD*%
D18*
%TO.C,AC POWER (~)*%
X56933500Y57501000D03*
D13*
X56933500Y62501000D03*
%TD*%
D19*
%TO.C,D3*%
X5137500Y35070000D03*
D20*
X5137500Y45230000D03*
%TD*%
D21*
%TO.C,POWER CONTROL*%
X7797500Y9430000D03*
D22*
X7797500Y11970000D03*
X7797500Y14510000D03*
X7797500Y17050000D03*
X7797500Y19590000D03*
%TD*%
D23*
%TO.C,Q3*%
X9887500Y51090000D03*
D24*
X8617500Y51090000D03*
X7347500Y51090000D03*
%TD*%
D16*
%TO.C,Q2*%
X58118500Y13871000D03*
D17*
X58118500Y11331000D03*
X58118500Y8791000D03*
%TD*%
D18*
%TO.C,PTC2*%
X56933500Y45891000D03*
D13*
X56933500Y50891000D03*
%TD*%
D10*
%TO.C,R9*%
X35283500Y30161000D03*
X50523500Y30161000D03*
%TD*%
D25*
%TO.C,PS1*%
X46063500Y51441000D03*
D26*
X46063500Y56441000D03*
X16983500Y46441000D03*
X16983500Y61441000D03*
%TD*%
D15*
%TO.C,R6*%
X29986833Y5441000D03*
X29986833Y18141000D03*
%TD*%
D10*
%TO.C,R8*%
X28613500Y24221000D03*
X13373500Y24221000D03*
%TD*%
D18*
%TO.C,PTC1*%
X56973500Y34251000D03*
D13*
X56973500Y39251000D03*
%TD*%
D27*
%TO.C,U2*%
X38723500Y14331000D03*
D15*
X38723500Y11791000D03*
X38723500Y9251000D03*
X46343500Y9251000D03*
X46343500Y11791000D03*
X46343500Y14331000D03*
%TD*%
M02*
