M48
; DRILL file {KiCad 9.0.6} date 2026-04-04T10:58:24-0500
; FORMAT={-:-/ absolute / metric / decimal}
; #@! TF.CreationDate,2026-04-04T10:58:24-05:00
; #@! TF.GenerationSoftware,Kicad,Pcbnew,9.0.6
; #@! TF.FileFunction,Plated,1,2,PTH
FMAT,2
METRIC
; #@! TA.AperFunction,Plated,PTH,ComponentDrill
T1C0.750
; #@! TA.AperFunction,Plated,PTH,ComponentDrill
T2C0.800
; #@! TA.AperFunction,Plated,PTH,ComponentDrill
T3C1.000
; #@! TA.AperFunction,Plated,PTH,ComponentDrill
T4C1.100
; #@! TA.AperFunction,Plated,PTH,ComponentDrill
T5C1.190
; #@! TA.AperFunction,Plated,PTH,ComponentDrill
T6C1.200
; #@! TA.AperFunction,Plated,PTH,ComponentDrill
T7C1.300
; #@! TA.AperFunction,Plated,PTH,ViaDrill
T8C2.500
%
G90
G05
T1
X7.347Y51.09
X8.617Y51.09
X9.887Y51.09
T2
X8.727Y45.55
X8.727Y32.85
X18.393Y14.331
X18.393Y11.791
X18.393Y9.251
X26.014Y14.331
X26.014Y11.791
X26.014Y9.251
X29.987Y18.141
X29.987Y5.441
X34.75Y18.141
X34.75Y5.441
X38.724Y14.331
X38.724Y11.791
X38.724Y9.251
X46.343Y14.331
X46.343Y11.791
X46.343Y9.251
T3
X16.983Y61.441
X16.983Y46.441
X18.088Y37.131
X25.588Y37.131
X37.828Y37.021
X45.328Y37.021
X46.063Y56.441
X46.063Y51.441
T4
X5.138Y45.23
X5.138Y35.07
X58.118Y25.931
X58.118Y23.391
X58.118Y20.851
X58.118Y13.871
X58.118Y11.331
X58.118Y8.791
T5
X7.797Y19.59
X7.797Y17.05
X7.797Y14.51
X7.797Y11.97
X7.797Y9.43
T6
X13.373Y30.171
X13.373Y24.221
X28.613Y30.171
X28.613Y24.221
X35.283Y30.161
X35.283Y24.351
X50.523Y30.161
X50.523Y24.351
T7
X6.5Y62.08
X6.5Y57.08
X56.933Y62.501
X56.933Y57.501
X56.933Y50.891
X56.933Y45.891
X56.973Y39.251
X56.973Y34.251
T8
X7.6Y66.68
X7.6Y3.68
X68.8Y66.68
X68.8Y3.68
M30
